<?xml version="1.0" encoding="UTF-8" standalone="no"?>
<!DOCTYPE svg PUBLIC "-//W3C//DTD SVG 1.1//EN"
 "http://www.w3.org/Graphics/SVG/1.1/DTD/svg11.dtd">
<!-- Generated by graphviz version 14.1.0 (20251206.1807)
 -->
<!-- Title: E:/Projects/GEN_FrameWork/GEN/Sound/FormatFiles/SNDFileWAV.h Pages: 1 -->
<svg width="437pt" height="444pt"
 viewBox="0.00 0.00 437.00 444.00" xmlns="http://www.w3.org/2000/svg" xmlns:xlink="http://www.w3.org/1999/xlink">
<g id="graph0" class="graph" transform="scale(1 1) rotate(0) translate(4 440)">
<title>E:/Projects/GEN_FrameWork/GEN/Sound/FormatFiles/SNDFileWAV.h</title>
<!-- Node1 -->
<g id="Node000001" class="node">
<title>Node1</title>
<g id="a_Node000001"><a xlink:title=" ">
<polygon fill="#999999" stroke="#666666" points="247.5,-436 102.5,-436 102.5,-392 247.5,-392 247.5,-436"/>
<text xml:space="preserve" text-anchor="start" x="110.5" y="-422.5" font-family="Helvetica,sans-Serif" font-size="10.00">E:/Projects/GEN_FrameWork</text>
<text xml:space="preserve" text-anchor="start" x="110.5" y="-410.5" font-family="Helvetica,sans-Serif" font-size="10.00">/GEN/Sound/FormatFiles</text>
<text xml:space="preserve" text-anchor="middle" x="175" y="-398.5" font-family="Helvetica,sans-Serif" font-size="10.00">/SNDFileWAV.h</text>
</a>
</g>
</g>
<!-- Node2 -->
<g id="Node000002" class="node">
<title>Node2</title>
<g id="a_Node000002"><a xlink:href="_x_base_8h.html" target="_top" xlink:title=" ">
<polygon fill="white" stroke="#666666" points="74.75,-20 21.25,-20 21.25,0 74.75,0 74.75,-20"/>
<text xml:space="preserve" text-anchor="middle" x="48" y="-6.5" font-family="Helvetica,sans-Serif" font-size="10.00">XBase.h</text>
</a>
</g>
</g>
<!-- Node1&#45;&gt;Node2 -->
<g id="edge1_Node000001_Node000002" class="edge">
<title>Node1&#45;&gt;Node2</title>
<g id="a_edge1_Node000001_Node000002"><a xlink:title=" ">
<path fill="none" stroke="#63b8ff" d="M102.05,-393.35C54.03,-375.49 0,-343.68 0,-291 0,-291 0,-291 0,-121 0,-86.6 19.97,-50.82 34.14,-29.74"/>
<polygon fill="#63b8ff" stroke="#63b8ff" points="36.95,-31.83 39.84,-21.64 31.23,-27.81 36.95,-31.83"/>
</a>
</g>
</g>
<!-- Node3 -->
<g id="Node000003" class="node">
<title>Node3</title>
<g id="a_Node000003"><a xlink:href="_x_file_8h.html" target="_top" xlink:title=" ">
<polygon fill="white" stroke="#666666" points="189.38,-300 142.62,-300 142.62,-280 189.38,-280 189.38,-300"/>
<text xml:space="preserve" text-anchor="middle" x="166" y="-286.5" font-family="Helvetica,sans-Serif" font-size="10.00">XFile.h</text>
</a>
</g>
</g>
<!-- Node1&#45;&gt;Node3 -->
<g id="edge2_Node000001_Node000003" class="edge">
<title>Node1&#45;&gt;Node3</title>
<g id="a_edge2_Node000001_Node000003"><a xlink:title=" ">
<path fill="none" stroke="#63b8ff" d="M170.36,-391.73C168.27,-381.06 166.04,-367.91 165,-356 164.23,-347.14 164.9,-344.89 165,-336 165.09,-328.09 165.26,-319.4 165.44,-311.78"/>
<polygon fill="#63b8ff" stroke="#63b8ff" points="168.94,-311.91 165.69,-301.82 161.94,-311.73 168.94,-311.91"/>
</a>
</g>
</g>
<!-- Node8 -->
<g id="Node000008" class="node">
<title>Node8</title>
<g id="a_Node000008"><a xlink:href="_x_path_8h.html" target="_top" xlink:title=" ">
<polygon fill="white" stroke="#666666" points="289.62,-244 238.38,-244 238.38,-224 289.62,-224 289.62,-244"/>
<text xml:space="preserve" text-anchor="middle" x="264" y="-230.5" font-family="Helvetica,sans-Serif" font-size="10.00">XPath.h</text>
</a>
</g>
</g>
<!-- Node1&#45;&gt;Node8 -->
<g id="edge27_Node000001_Node000008" class="edge">
<title>Node1&#45;&gt;Node8</title>
<g id="a_edge27_Node000001_Node000008"><a xlink:title=" ">
<path fill="none" stroke="#63b8ff" d="M211.14,-391.52C223.8,-382.19 236.88,-370.13 245,-356 263.13,-324.44 265.51,-280.99 265.1,-255.66"/>
<polygon fill="#63b8ff" stroke="#63b8ff" points="268.6,-255.61 264.75,-245.74 261.6,-255.85 268.6,-255.61"/>
</a>
</g>
</g>
<!-- Node17 -->
<g id="Node000017" class="node">
<title>Node17</title>
<g id="a_Node000017"><a xlink:href="_s_n_d_file_8h.html" target="_top" xlink:title=" ">
<polygon fill="white" stroke="#666666" points="235.88,-356 174.12,-356 174.12,-336 235.88,-336 235.88,-356"/>
<text xml:space="preserve" text-anchor="middle" x="205" y="-342.5" font-family="Helvetica,sans-Serif" font-size="10.00">SNDFile.h</text>
</a>
</g>
</g>
<!-- Node1&#45;&gt;Node17 -->
<g id="edge28_Node000001_Node000017" class="edge">
<title>Node1&#45;&gt;Node17</title>
<g id="a_edge28_Node000001_Node000017"><a xlink:title=" ">
<path fill="none" stroke="#63b8ff" d="M184.66,-391.75C188.29,-383.75 192.41,-374.69 195.99,-366.83"/>
<polygon fill="#63b8ff" stroke="#63b8ff" points="199.14,-368.35 200.09,-357.8 192.77,-365.45 199.14,-368.35"/>
</a>
</g>
</g>
<!-- Node4 -->
<g id="Node000004" class="node">
<title>Node4</title>
<g id="a_Node000004"><a xlink:href="_x_vector_8h.html" target="_top" xlink:title=" ">
<polygon fill="white" stroke="#666666" points="336.38,-76 277.62,-76 277.62,-56 336.38,-56 336.38,-76"/>
<text xml:space="preserve" text-anchor="middle" x="307" y="-62.5" font-family="Helvetica,sans-Serif" font-size="10.00">XVector.h</text>
</a>
</g>
</g>
<!-- Node3&#45;&gt;Node4 -->
<g id="edge3_Node000003_Node000004" class="edge">
<title>Node3&#45;&gt;Node4</title>
<g id="a_edge3_Node000003_Node000004"><a xlink:title=" ">
<path fill="none" stroke="#63b8ff" d="M170.2,-279.58C179.63,-258.8 203.61,-207.71 229,-168 248.59,-137.36 275.12,-104.49 291.64,-84.85"/>
<polygon fill="#63b8ff" stroke="#63b8ff" points="294.09,-87.37 297.9,-77.49 288.75,-82.84 294.09,-87.37"/>
</a>
</g>
</g>
<!-- Node3&#45;&gt;Node8 -->
<g id="edge8_Node000003_Node000008" class="edge">
<title>Node3&#45;&gt;Node8</title>
<g id="a_edge8_Node000003_Node000008"><a xlink:title=" ">
<path fill="none" stroke="#63b8ff" d="M183.07,-279.59C197.88,-271.44 219.57,-259.48 236.77,-250"/>
<polygon fill="#63b8ff" stroke="#63b8ff" points="238.4,-253.1 245.47,-245.21 235.02,-246.97 238.4,-253.1"/>
</a>
</g>
</g>
<!-- Node13 -->
<g id="Node000013" class="node">
<title>Node13</title>
<g id="a_Node000013"><a xlink:href="_x_buffer_8h.html" target="_top" xlink:title=" ">
<polygon fill="white" stroke="#666666" points="144.25,-188 87.75,-188 87.75,-168 144.25,-168 144.25,-188"/>
<text xml:space="preserve" text-anchor="middle" x="116" y="-174.5" font-family="Helvetica,sans-Serif" font-size="10.00">XBuffer.h</text>
</a>
</g>
</g>
<!-- Node3&#45;&gt;Node13 -->
<g id="edge18_Node000003_Node000013" class="edge">
<title>Node3&#45;&gt;Node13</title>
<g id="a_edge18_Node000003_Node000013"><a xlink:title=" ">
<path fill="none" stroke="#63b8ff" d="M161.74,-279.62C153.62,-261.76 135.79,-222.53 124.94,-198.67"/>
<polygon fill="#63b8ff" stroke="#63b8ff" points="128.2,-197.39 120.88,-189.73 121.83,-200.28 128.2,-197.39"/>
</a>
</g>
</g>
<!-- Node14 -->
<g id="Node000014" class="node">
<title>Node14</title>
<g id="a_Node000014"><a xlink:href="_factory_base_8h.html" target="_top" xlink:title=" ">
<polygon fill="white" stroke="#666666" points="183.88,-76 104.12,-76 104.12,-56 183.88,-56 183.88,-76"/>
<text xml:space="preserve" text-anchor="middle" x="144" y="-62.5" font-family="Helvetica,sans-Serif" font-size="10.00">FactoryBase.h</text>
</a>
</g>
</g>
<!-- Node3&#45;&gt;Node14 -->
<g id="edge21_Node000003_Node000014" class="edge">
<title>Node3&#45;&gt;Node14</title>
<g id="a_edge21_Node000003_Node000014"><a xlink:title=" ">
<path fill="none" stroke="#63b8ff" d="M153.4,-279.53C133.12,-263.39 93.98,-228.35 79,-188 64.44,-148.78 100.37,-106.48 124.42,-83.75"/>
<polygon fill="#63b8ff" stroke="#63b8ff" points="126.45,-86.63 131.51,-77.32 121.75,-81.45 126.45,-86.63"/>
</a>
</g>
</g>
<!-- Node4&#45;&gt;Node2 -->
<g id="edge6_Node000004_Node000002" class="edge">
<title>Node4&#45;&gt;Node2</title>
<g id="a_edge6_Node000004_Node000002"><a xlink:title=" ">
<path fill="none" stroke="#63b8ff" d="M277.18,-59.53C236.17,-51.9 159.81,-37.29 85.97,-20.6"/>
<polygon fill="#63b8ff" stroke="#63b8ff" points="87.1,-17.27 76.57,-18.46 85.55,-24.09 87.1,-17.27"/>
</a>
</g>
</g>
<!-- Node5 -->
<g id="Node000005" class="node">
<title>Node5</title>
<g id="a_Node000005"><a xlink:title=" ">
<polygon fill="#e0e0e0" stroke="#999999" points="307.62,-20 262.38,-20 262.38,0 307.62,0 307.62,-20"/>
<text xml:space="preserve" text-anchor="middle" x="285" y="-6.5" font-family="Helvetica,sans-Serif" font-size="10.00">stdio.h</text>
</a>
</g>
</g>
<!-- Node4&#45;&gt;Node5 -->
<g id="edge4_Node000004_Node000005" class="edge">
<title>Node4&#45;&gt;Node5</title>
<g id="a_edge4_Node000004_Node000005"><a xlink:title=" ">
<path fill="none" stroke="#63b8ff" d="M303.17,-55.59C300.39,-48.78 296.54,-39.32 293.09,-30.86"/>
<polygon fill="#63b8ff" stroke="#63b8ff" points="296.37,-29.64 289.36,-21.7 289.89,-32.28 296.37,-29.64"/>
</a>
</g>
</g>
<!-- Node6 -->
<g id="Node000006" class="node">
<title>Node6</title>
<g id="a_Node000006"><a xlink:title=" ">
<polygon fill="#e0e0e0" stroke="#999999" points="244.12,-20 195.88,-20 195.88,0 244.12,0 244.12,-20"/>
<text xml:space="preserve" text-anchor="middle" x="220" y="-6.5" font-family="Helvetica,sans-Serif" font-size="10.00">string.h</text>
</a>
</g>
</g>
<!-- Node4&#45;&gt;Node6 -->
<g id="edge5_Node000004_Node000006" class="edge">
<title>Node4&#45;&gt;Node6</title>
<g id="a_edge5_Node000004_Node000006"><a xlink:title=" ">
<path fill="none" stroke="#63b8ff" d="M291.85,-55.59C278.95,-47.59 260.17,-35.93 245.04,-26.54"/>
<polygon fill="#63b8ff" stroke="#63b8ff" points="246.9,-23.58 236.56,-21.28 243.21,-29.53 246.9,-23.58"/>
</a>
</g>
</g>
<!-- Node7 -->
<g id="Node000007" class="node">
<title>Node7</title>
<g id="a_Node000007"><a xlink:href="_x_memory___control_8h.html" target="_top" xlink:title=" ">
<polygon fill="white" stroke="#666666" points="428.5,-20 325.5,-20 325.5,0 428.5,0 428.5,-20"/>
<text xml:space="preserve" text-anchor="middle" x="377" y="-6.5" font-family="Helvetica,sans-Serif" font-size="10.00">XMemory_Control.h</text>
</a>
</g>
</g>
<!-- Node4&#45;&gt;Node7 -->
<g id="edge7_Node000004_Node000007" class="edge">
<title>Node4&#45;&gt;Node7</title>
<g id="a_edge7_Node000004_Node000007"><a xlink:title=" ">
<path fill="none" stroke="#63b8ff" d="M319.19,-55.59C329.33,-47.77 343.99,-36.46 356.01,-27.19"/>
<polygon fill="#63b8ff" stroke="#63b8ff" points="357.97,-30.1 363.75,-21.22 353.69,-24.56 357.97,-30.1"/>
</a>
</g>
</g>
<!-- Node8&#45;&gt;Node4 -->
<g id="edge14_Node000008_Node000004" class="edge">
<title>Node8&#45;&gt;Node4</title>
<g id="a_edge14_Node000008_Node000004"><a xlink:title=" ">
<path fill="none" stroke="#63b8ff" d="M290.08,-225.38C307.88,-218.66 330.13,-206.94 341,-188 360.01,-154.88 337.14,-110.5 320.77,-85.73"/>
<polygon fill="#63b8ff" stroke="#63b8ff" points="323.73,-83.86 315.15,-77.65 317.98,-87.86 323.73,-83.86"/>
</a>
</g>
</g>
<!-- Node9 -->
<g id="Node000009" class="node">
<title>Node9</title>
<g id="a_Node000009"><a xlink:href="_x_string_8h.html" target="_top" xlink:title=" ">
<polygon fill="#fff0f0" stroke="red" points="191.25,-132 134.75,-132 134.75,-112 191.25,-112 191.25,-132"/>
<text xml:space="preserve" text-anchor="middle" x="163" y="-118.5" font-family="Helvetica,sans-Serif" font-size="10.00">XString.h</text>
</a>
</g>
</g>
<!-- Node8&#45;&gt;Node9 -->
<g id="edge9_Node000008_Node000009" class="edge">
<title>Node8&#45;&gt;Node9</title>
<g id="a_edge9_Node000008_Node000009"><a xlink:title=" ">
<path fill="none" stroke="#63b8ff" d="M255.39,-223.62C238.54,-205.27 200.99,-164.37 179.3,-140.75"/>
<polygon fill="#63b8ff" stroke="#63b8ff" points="181.95,-138.47 172.61,-133.47 176.8,-143.2 181.95,-138.47"/>
</a>
</g>
</g>
<!-- Node12 -->
<g id="Node000012" class="node">
<title>Node12</title>
<g id="a_Node000012"><a xlink:href="_x_paths_manager_8h.html" target="_top" xlink:title=" ">
<polygon fill="white" stroke="#666666" points="332,-188 238,-188 238,-168 332,-168 332,-188"/>
<text xml:space="preserve" text-anchor="middle" x="285" y="-174.5" font-family="Helvetica,sans-Serif" font-size="10.00">XPathsManager.h</text>
</a>
</g>
</g>
<!-- Node8&#45;&gt;Node12 -->
<g id="edge15_Node000008_Node000012" class="edge">
<title>Node8&#45;&gt;Node12</title>
<g id="a_edge15_Node000008_Node000012"><a xlink:title=" ">
<path fill="none" stroke="#63b8ff" d="M267.66,-223.59C270.31,-216.78 273.99,-207.32 277.28,-198.86"/>
<polygon fill="#63b8ff" stroke="#63b8ff" points="280.47,-200.3 280.84,-189.71 273.95,-197.76 280.47,-200.3"/>
</a>
</g>
</g>
<!-- Node9&#45;&gt;Node2 -->
<g id="edge12_Node000009_Node000002" class="edge">
<title>Node9&#45;&gt;Node2</title>
<g id="a_edge12_Node000009_Node000002"><a xlink:title=" ">
<path fill="none" stroke="#63b8ff" d="M145.27,-111.64C130.76,-103.45 110.22,-90.6 95,-76 80.59,-62.17 67.57,-43.43 58.91,-29.63"/>
<polygon fill="#63b8ff" stroke="#63b8ff" points="62.15,-28.22 53.97,-21.49 56.17,-31.86 62.15,-28.22"/>
</a>
</g>
</g>
<!-- Node9&#45;&gt;Node4 -->
<g id="edge13_Node000009_Node000004" class="edge">
<title>Node9&#45;&gt;Node4</title>
<g id="a_edge13_Node000009_Node000004"><a xlink:title=" ">
<path fill="none" stroke="#63b8ff" d="M188.08,-111.59C211.07,-102.97 245.35,-90.12 271.21,-80.42"/>
<polygon fill="#63b8ff" stroke="#63b8ff" points="272.17,-83.8 280.3,-77.01 269.71,-77.25 272.17,-83.8"/>
</a>
</g>
</g>
<!-- Node9&#45;&gt;Node5 -->
<g id="edge10_Node000009_Node000005" class="edge">
<title>Node9&#45;&gt;Node5</title>
<g id="a_edge10_Node000009_Node000005"><a xlink:title=" ">
<path fill="none" stroke="#63b8ff" d="M173.4,-111.62C194.02,-93.03 240.32,-51.28 266.34,-27.82"/>
<polygon fill="#63b8ff" stroke="#63b8ff" points="268.42,-30.66 273.5,-21.37 263.73,-25.47 268.42,-30.66"/>
</a>
</g>
</g>
<!-- Node9&#45;&gt;Node6 -->
<g id="edge11_Node000009_Node000006" class="edge">
<title>Node9&#45;&gt;Node6</title>
<g id="a_edge11_Node000009_Node000006"><a xlink:title=" ">
<path fill="none" stroke="#63b8ff" d="M170,-111.68C176.47,-102.8 186.1,-88.92 193,-76 200.85,-61.31 207.99,-43.84 212.96,-30.71"/>
<polygon fill="#63b8ff" stroke="#63b8ff" points="216.18,-32.1 216.34,-21.5 209.61,-29.68 216.18,-32.1"/>
</a>
</g>
</g>
<!-- Node12&#45;&gt;Node4 -->
<g id="edge16_Node000012_Node000004" class="edge">
<title>Node12&#45;&gt;Node4</title>
<g id="a_edge16_Node000012_Node000004"><a xlink:title=" ">
<path fill="none" stroke="#63b8ff" d="M286.88,-167.62C290.42,-149.92 298.15,-111.24 302.94,-87.32"/>
<polygon fill="#63b8ff" stroke="#63b8ff" points="306.3,-88.33 304.83,-77.84 299.44,-86.96 306.3,-88.33"/>
</a>
</g>
</g>
<!-- Node12&#45;&gt;Node9 -->
<g id="edge17_Node000012_Node000009" class="edge">
<title>Node12&#45;&gt;Node9</title>
<g id="a_edge17_Node000012_Node000009"><a xlink:title=" ">
<path fill="none" stroke="#63b8ff" d="M263.75,-167.59C244.71,-159.17 216.52,-146.69 194.8,-137.07"/>
<polygon fill="#63b8ff" stroke="#63b8ff" points="196.36,-133.94 185.8,-133.09 193.53,-140.34 196.36,-133.94"/>
</a>
</g>
</g>
<!-- Node13&#45;&gt;Node2 -->
<g id="edge19_Node000013_Node000002" class="edge">
<title>Node13&#45;&gt;Node2</title>
<g id="a_edge19_Node000013_Node000002"><a xlink:title=" ">
<path fill="none" stroke="#63b8ff" d="M111.86,-167.58C104.06,-149.77 86.74,-109.91 73,-76 66.88,-60.9 60.28,-43.69 55.4,-30.77"/>
<polygon fill="#63b8ff" stroke="#63b8ff" points="58.79,-29.84 51.99,-21.71 52.23,-32.31 58.79,-29.84"/>
</a>
</g>
</g>
<!-- Node13&#45;&gt;Node9 -->
<g id="edge20_Node000013_Node000009" class="edge">
<title>Node13&#45;&gt;Node9</title>
<g id="a_edge20_Node000013_Node000009"><a xlink:title=" ">
<path fill="none" stroke="#63b8ff" d="M124.19,-167.59C130.59,-160.24 139.68,-149.8 147.45,-140.87"/>
<polygon fill="#63b8ff" stroke="#63b8ff" points="149.99,-143.28 153.91,-133.44 144.71,-138.69 149.99,-143.28"/>
</a>
</g>
</g>
<!-- Node14&#45;&gt;Node2 -->
<g id="edge26_Node000014_Node000002" class="edge">
<title>Node14&#45;&gt;Node2</title>
<g id="a_edge26_Node000014_Node000002"><a xlink:title=" ">
<path fill="none" stroke="#63b8ff" d="M127.28,-55.59C112.78,-47.44 91.53,-35.48 74.68,-26"/>
<polygon fill="#63b8ff" stroke="#63b8ff" points="76.6,-23.07 66.17,-21.22 73.17,-29.17 76.6,-23.07"/>
</a>
</g>
</g>
<!-- Node14&#45;&gt;Node5 -->
<g id="edge24_Node000014_Node000005" class="edge">
<title>Node14&#45;&gt;Node5</title>
<g id="a_edge24_Node000014_Node000005"><a xlink:title=" ">
<path fill="none" stroke="#63b8ff" d="M168.56,-55.59C191.52,-46.8 225.98,-33.6 251.46,-23.84"/>
<polygon fill="#63b8ff" stroke="#63b8ff" points="252.62,-27.15 260.71,-20.3 250.12,-20.61 252.62,-27.15"/>
</a>
</g>
</g>
<!-- Node14&#45;&gt;Node6 -->
<g id="edge25_Node000014_Node000006" class="edge">
<title>Node14&#45;&gt;Node6</title>
<g id="a_edge25_Node000014_Node000006"><a xlink:title=" ">
<path fill="none" stroke="#63b8ff" d="M157.24,-55.59C168.29,-47.74 184.28,-36.38 197.36,-27.09"/>
<polygon fill="#63b8ff" stroke="#63b8ff" points="199.3,-30 205.42,-21.36 195.25,-24.3 199.3,-30"/>
</a>
</g>
</g>
<!-- Node15 -->
<g id="Node000015" class="node">
<title>Node15</title>
<g id="a_Node000015"><a xlink:href="_g_e_n___defines_8h.html" target="_top" xlink:title=" ">
<polygon fill="#fff0f0" stroke="red" points="177.5,-20 92.5,-20 92.5,0 177.5,0 177.5,-20"/>
<text xml:space="preserve" text-anchor="middle" x="135" y="-6.5" font-family="Helvetica,sans-Serif" font-size="10.00">GEN_Defines.h</text>
</a>
</g>
</g>
<!-- Node14&#45;&gt;Node15 -->
<g id="edge22_Node000014_Node000015" class="edge">
<title>Node14&#45;&gt;Node15</title>
<g id="a_edge22_Node000014_Node000015"><a xlink:title=" ">
<path fill="none" stroke="#63b8ff" d="M137.17,-55.59C134.75,-49.01 132.8,-39.96 131.87,-31.73"/>
<polygon fill="#63b8ff" stroke="#63b8ff" points="135.37,-31.63 131.38,-21.81 128.38,-31.97 135.37,-31.63"/>
</a>
</g>
</g>
<!-- Node15&#45;&gt;Node14 -->
<g id="edge23_Node000015_Node000014" class="edge">
<title>Node15&#45;&gt;Node14</title>
<g id="a_edge23_Node000015_Node000014"><a xlink:title=" ">
<path fill="none" stroke="#63b8ff" d="M141.79,-20.3C144.21,-26.85 146.17,-35.9 147.12,-44.13"/>
<polygon fill="#63b8ff" stroke="#63b8ff" points="143.62,-44.27 147.62,-54.08 150.61,-43.92 143.62,-44.27"/>
</a>
</g>
</g>
<!-- Node17&#45;&gt;Node3 -->
<g id="edge29_Node000017_Node000003" class="edge">
<title>Node17&#45;&gt;Node3</title>
<g id="a_edge29_Node000017_Node000003"><a xlink:title=" ">
<path fill="none" stroke="#63b8ff" d="M198.21,-335.59C193.01,-328.39 185.67,-318.23 179.31,-309.43"/>
<polygon fill="#63b8ff" stroke="#63b8ff" points="182.29,-307.58 173.6,-301.53 176.62,-311.68 182.29,-307.58"/>
</a>
</g>
</g>
<!-- Node17&#45;&gt;Node8 -->
<g id="edge30_Node000017_Node000008" class="edge">
<title>Node17&#45;&gt;Node8</title>
<g id="a_edge30_Node000017_Node000008"><a xlink:title=" ">
<path fill="none" stroke="#63b8ff" d="M210.03,-335.62C219.65,-317.68 240.84,-278.17 253.62,-254.35"/>
<polygon fill="#63b8ff" stroke="#63b8ff" points="256.62,-256.16 258.27,-245.69 250.46,-252.85 256.62,-256.16"/>
</a>
</g>
</g>
</g>
</svg>
