<?xml version="1.0" encoding="UTF-8" standalone="no"?>
<!DOCTYPE svg PUBLIC "-//W3C//DTD SVG 1.1//EN"
 "http://www.w3.org/Graphics/SVG/1.1/DTD/svg11.dtd">
<!-- Generated by graphviz version 14.1.0 (20251206.1807)
 -->
<!-- Title: E:/Projects/GEN_FrameWork/GEN/UserInterface/Elements/UI_Element_EditText.h Pages: 1 -->
<svg width="464pt" height="500pt"
 viewBox="0.00 0.00 464.00 500.00" xmlns="http://www.w3.org/2000/svg" xmlns:xlink="http://www.w3.org/1999/xlink">
<g id="graph0" class="graph" transform="scale(1 1) rotate(0) translate(4 496)">
<title>E:/Projects/GEN_FrameWork/GEN/UserInterface/Elements/UI_Element_EditText.h</title>
<!-- Node1 -->
<g id="Node000001" class="node">
<title>Node1</title>
<g id="a_Node000001"><a xlink:title=" ">
<polygon fill="#999999" stroke="#666666" points="227.5,-492 80.25,-492 80.25,-448 227.5,-448 227.5,-492"/>
<text xml:space="preserve" text-anchor="start" x="88.25" y="-478.5" font-family="Helvetica,sans-Serif" font-size="10.00">E:/Projects/GEN_FrameWork</text>
<text xml:space="preserve" text-anchor="start" x="88.25" y="-466.5" font-family="Helvetica,sans-Serif" font-size="10.00">/GEN/UserInterface/Elements</text>
<text xml:space="preserve" text-anchor="middle" x="153.88" y="-454.5" font-family="Helvetica,sans-Serif" font-size="10.00">/UI_Element_EditText.h</text>
</a>
</g>
</g>
<!-- Node2 -->
<g id="Node000002" class="node">
<title>Node2</title>
<g id="a_Node000002"><a xlink:href="_u_i___element_8h.html" target="_top" xlink:title=" ">
<polygon fill="white" stroke="#666666" points="230.88,-356 154.88,-356 154.88,-336 230.88,-336 230.88,-356"/>
<text xml:space="preserve" text-anchor="middle" x="192.88" y="-342.5" font-family="Helvetica,sans-Serif" font-size="10.00">UI_Element.h</text>
</a>
</g>
</g>
<!-- Node1&#45;&gt;Node2 -->
<g id="edge1_Node000001_Node000002" class="edge">
<title>Node1&#45;&gt;Node2</title>
<g id="a_edge1_Node000001_Node000002"><a xlink:title=" ">
<path fill="none" stroke="#63b8ff" d="M140.5,-447.58C132.38,-431.65 125.11,-409.7 133.88,-392 140.06,-379.5 151.57,-369.52 162.79,-362.17"/>
<polygon fill="#63b8ff" stroke="#63b8ff" points="164.36,-365.31 171.14,-357.17 160.76,-359.31 164.36,-365.31"/>
</a>
</g>
</g>
<!-- Node21 -->
<g id="Node000021" class="node">
<title>Node21</title>
<g id="a_Node000021"><a xlink:href="_u_i___element___text_8h.html" target="_top" xlink:title=" ">
<polygon fill="white" stroke="#666666" points="242.88,-412 142.88,-412 142.88,-392 242.88,-392 242.88,-412"/>
<text xml:space="preserve" text-anchor="middle" x="192.88" y="-398.5" font-family="Helvetica,sans-Serif" font-size="10.00">UI_Element_Text.h</text>
</a>
</g>
</g>
<!-- Node1&#45;&gt;Node21 -->
<g id="edge25_Node000001_Node000021" class="edge">
<title>Node1&#45;&gt;Node21</title>
<g id="a_edge25_Node000001_Node000021"><a xlink:title=" ">
<path fill="none" stroke="#63b8ff" d="M166.43,-447.75C171.27,-439.57 176.76,-430.27 181.48,-422.28"/>
<polygon fill="#63b8ff" stroke="#63b8ff" points="184.47,-424.11 186.54,-413.72 178.44,-420.55 184.47,-424.11"/>
</a>
</g>
</g>
<!-- Node22 -->
<g id="Node000022" class="node">
<title>Node22</title>
<g id="a_Node000022"><a xlink:href="_u_i___property___selectable_8h.html" target="_top" xlink:title=" ">
<polygon fill="white" stroke="#666666" points="127.75,-356 0,-356 0,-336 127.75,-336 127.75,-356"/>
<text xml:space="preserve" text-anchor="middle" x="63.88" y="-342.5" font-family="Helvetica,sans-Serif" font-size="10.00">UI_Property_Selectable.h</text>
</a>
</g>
</g>
<!-- Node1&#45;&gt;Node22 -->
<g id="edge27_Node000001_Node000022" class="edge">
<title>Node1&#45;&gt;Node22</title>
<g id="a_edge27_Node000001_Node000022"><a xlink:title=" ">
<path fill="none" stroke="#63b8ff" d="M138.2,-447.75C120.99,-424.42 93.65,-387.36 77.37,-365.29"/>
<polygon fill="#63b8ff" stroke="#63b8ff" points="80.39,-363.49 71.64,-357.52 74.76,-367.64 80.39,-363.49"/>
</a>
</g>
</g>
<!-- Node23 -->
<g id="Node000023" class="node">
<title>Node23</title>
<g id="a_Node000023"><a xlink:href="_u_i___property___editable_8h.html" target="_top" xlink:title=" ">
<polygon fill="white" stroke="#666666" points="378.5,-412 261.25,-412 261.25,-392 378.5,-392 378.5,-412"/>
<text xml:space="preserve" text-anchor="middle" x="319.88" y="-398.5" font-family="Helvetica,sans-Serif" font-size="10.00">UI_Property_Editable.h</text>
</a>
</g>
</g>
<!-- Node1&#45;&gt;Node23 -->
<g id="edge29_Node000001_Node000023" class="edge">
<title>Node1&#45;&gt;Node23</title>
<g id="a_edge29_Node000001_Node000023"><a xlink:title=" ">
<path fill="none" stroke="#63b8ff" d="M207.77,-447.57C233.36,-437.4 263.18,-425.54 285.63,-416.62"/>
<polygon fill="#63b8ff" stroke="#63b8ff" points="286.91,-419.87 294.91,-412.92 284.33,-413.37 286.91,-419.87"/>
</a>
</g>
</g>
<!-- Node3 -->
<g id="Node000003" class="node">
<title>Node3</title>
<g id="a_Node000003"><a xlink:href="_x_publisher_8h.html" target="_top" xlink:title=" ">
<polygon fill="white" stroke="#666666" points="279.62,-244 208.12,-244 208.12,-224 279.62,-224 279.62,-244"/>
<text xml:space="preserve" text-anchor="middle" x="243.88" y="-230.5" font-family="Helvetica,sans-Serif" font-size="10.00">XPublisher.h</text>
</a>
</g>
</g>
<!-- Node2&#45;&gt;Node3 -->
<g id="edge2_Node000002_Node000003" class="edge">
<title>Node2&#45;&gt;Node3</title>
<g id="a_edge2_Node000002_Node000003"><a xlink:title=" ">
<path fill="none" stroke="#63b8ff" d="M204.63,-335.6C214.14,-327.3 227.04,-314.3 233.88,-300 240.52,-286.1 242.93,-268.81 243.74,-255.55"/>
<polygon fill="#63b8ff" stroke="#63b8ff" points="247.23,-255.94 244.05,-245.83 240.23,-255.71 247.23,-255.94"/>
</a>
</g>
</g>
<!-- Node18 -->
<g id="Node000018" class="node">
<title>Node18</title>
<g id="a_Node000018"><a xlink:href="_x_subject_8h.html" target="_top" xlink:title=" ">
<polygon fill="white" stroke="#666666" points="224.88,-300 160.88,-300 160.88,-280 224.88,-280 224.88,-300"/>
<text xml:space="preserve" text-anchor="middle" x="192.88" y="-286.5" font-family="Helvetica,sans-Serif" font-size="10.00">XSubject.h</text>
</a>
</g>
</g>
<!-- Node2&#45;&gt;Node18 -->
<g id="edge18_Node000002_Node000018" class="edge">
<title>Node2&#45;&gt;Node18</title>
<g id="a_edge18_Node000002_Node000018"><a xlink:title=" ">
<path fill="none" stroke="#63b8ff" d="M192.88,-335.59C192.88,-329.01 192.88,-319.96 192.88,-311.73"/>
<polygon fill="#63b8ff" stroke="#63b8ff" points="196.38,-311.81 192.88,-301.81 189.38,-311.81 196.38,-311.81"/>
</a>
</g>
</g>
<!-- Node19 -->
<g id="Node000019" class="node">
<title>Node19</title>
<g id="a_Node000019"><a xlink:href="_u_i___color_8h.html" target="_top" xlink:title=" ">
<polygon fill="white" stroke="#666666" points="169.5,-244 106.25,-244 106.25,-224 169.5,-224 169.5,-244"/>
<text xml:space="preserve" text-anchor="middle" x="137.88" y="-230.5" font-family="Helvetica,sans-Serif" font-size="10.00">UI_Color.h</text>
</a>
</g>
</g>
<!-- Node2&#45;&gt;Node19 -->
<g id="edge21_Node000002_Node000019" class="edge">
<title>Node2&#45;&gt;Node19</title>
<g id="a_edge21_Node000002_Node000019"><a xlink:title=" ">
<path fill="none" stroke="#63b8ff" d="M181.71,-335.83C172.3,-327.47 159.23,-314.28 151.88,-300 144.75,-286.16 141.24,-268.86 139.52,-255.58"/>
<polygon fill="#63b8ff" stroke="#63b8ff" points="143.03,-255.43 138.52,-245.84 136.06,-256.15 143.03,-255.43"/>
</a>
</g>
</g>
<!-- Node20 -->
<g id="Node000020" class="node">
<title>Node20</title>
<g id="a_Node000020"><a xlink:href="_u_i___boundary_line_8h.html" target="_top" xlink:title=" ">
<polygon fill="white" stroke="#666666" points="455.5,-188 356.25,-188 356.25,-168 455.5,-168 455.5,-188"/>
<text xml:space="preserve" text-anchor="middle" x="405.88" y="-174.5" font-family="Helvetica,sans-Serif" font-size="10.00">UI_BoundaryLine.h</text>
</a>
</g>
</g>
<!-- Node2&#45;&gt;Node20 -->
<g id="edge23_Node000002_Node000020" class="edge">
<title>Node2&#45;&gt;Node20</title>
<g id="a_edge23_Node000002_Node000020"><a xlink:title=" ">
<path fill="none" stroke="#63b8ff" d="M204.88,-335.7C216.61,-326.61 234.98,-312.37 250.88,-300 298.8,-262.7 354.96,-218.81 384.78,-195.5"/>
<polygon fill="#63b8ff" stroke="#63b8ff" points="386.91,-198.28 392.63,-189.36 382.6,-192.76 386.91,-198.28"/>
</a>
</g>
</g>
<!-- Node4 -->
<g id="Node000004" class="node">
<title>Node4</title>
<g id="a_Node000004"><a xlink:href="_x_vector_8h.html" target="_top" xlink:title=" ">
<polygon fill="#fff0f0" stroke="red" points="278.25,-76 219.5,-76 219.5,-56 278.25,-56 278.25,-76"/>
<text xml:space="preserve" text-anchor="middle" x="248.88" y="-62.5" font-family="Helvetica,sans-Serif" font-size="10.00">XVector.h</text>
</a>
</g>
</g>
<!-- Node3&#45;&gt;Node4 -->
<g id="edge3_Node000003_Node000004" class="edge">
<title>Node3&#45;&gt;Node4</title>
<g id="a_edge3_Node000003_Node000004"><a xlink:title=" ">
<path fill="none" stroke="#63b8ff" d="M244.16,-223.6C244.95,-197.46 247.17,-123.48 248.26,-87.36"/>
<polygon fill="#63b8ff" stroke="#63b8ff" points="251.75,-87.91 248.55,-77.81 244.75,-87.7 251.75,-87.91"/>
</a>
</g>
</g>
<!-- Node9 -->
<g id="Node000009" class="node">
<title>Node9</title>
<g id="a_Node000009"><a xlink:href="_x_map_8h.html" target="_top" xlink:title=" ">
<polygon fill="white" stroke="#666666" points="307.75,-132 258,-132 258,-112 307.75,-112 307.75,-132"/>
<text xml:space="preserve" text-anchor="middle" x="282.88" y="-118.5" font-family="Helvetica,sans-Serif" font-size="10.00">XMap.h</text>
</a>
</g>
</g>
<!-- Node3&#45;&gt;Node9 -->
<g id="edge6_Node000003_Node000009" class="edge">
<title>Node3&#45;&gt;Node9</title>
<g id="a_edge6_Node000003_Node000009"><a xlink:title=" ">
<path fill="none" stroke="#63b8ff" d="M247.2,-223.62C253.5,-205.84 267.32,-166.88 275.79,-143"/>
<polygon fill="#63b8ff" stroke="#63b8ff" points="279.01,-144.38 279.05,-133.78 272.41,-142.04 279.01,-144.38"/>
</a>
</g>
</g>
<!-- Node10 -->
<g id="Node000010" class="node">
<title>Node10</title>
<g id="a_Node000010"><a xlink:href="_x_thread_8h.html" target="_top" xlink:title=" ">
<polygon fill="#fff0f0" stroke="red" points="210.38,-188 149.38,-188 149.38,-168 210.38,-168 210.38,-188"/>
<text xml:space="preserve" text-anchor="middle" x="179.88" y="-174.5" font-family="Helvetica,sans-Serif" font-size="10.00">XThread.h</text>
</a>
</g>
</g>
<!-- Node3&#45;&gt;Node10 -->
<g id="edge9_Node000003_Node000010" class="edge">
<title>Node3&#45;&gt;Node10</title>
<g id="a_edge9_Node000003_Node000010"><a xlink:title=" ">
<path fill="none" stroke="#63b8ff" d="M232.73,-223.59C223.55,-215.85 210.32,-204.69 199.39,-195.47"/>
<polygon fill="#63b8ff" stroke="#63b8ff" points="201.95,-193.05 192.05,-189.27 197.44,-198.4 201.95,-193.05"/>
</a>
</g>
</g>
<!-- Node17 -->
<g id="Node000017" class="node">
<title>Node17</title>
<g id="a_Node000017"><a xlink:href="_x_event_8h.html" target="_top" xlink:title=" ">
<polygon fill="white" stroke="#666666" points="382.12,-132 325.62,-132 325.62,-112 382.12,-112 382.12,-132"/>
<text xml:space="preserve" text-anchor="middle" x="353.88" y="-118.5" font-family="Helvetica,sans-Serif" font-size="10.00">XEvent.h</text>
</a>
</g>
</g>
<!-- Node3&#45;&gt;Node17 -->
<g id="edge15_Node000003_Node000017" class="edge">
<title>Node3&#45;&gt;Node17</title>
<g id="a_edge15_Node000003_Node000017"><a xlink:title=" ">
<path fill="none" stroke="#63b8ff" d="M253.25,-223.62C271.68,-205.19 312.87,-164.01 336.43,-140.44"/>
<polygon fill="#63b8ff" stroke="#63b8ff" points="338.85,-142.97 343.45,-133.43 333.9,-138.02 338.85,-142.97"/>
</a>
</g>
</g>
<!-- Node5 -->
<g id="Node000005" class="node">
<title>Node5</title>
<g id="a_Node000005"><a xlink:title=" ">
<polygon fill="#e0e0e0" stroke="#999999" points="176.5,-20 131.25,-20 131.25,0 176.5,0 176.5,-20"/>
<text xml:space="preserve" text-anchor="middle" x="153.88" y="-6.5" font-family="Helvetica,sans-Serif" font-size="10.00">stdio.h</text>
</a>
</g>
</g>
<!-- Node4&#45;&gt;Node5 -->
<g id="edge4_Node000004_Node000005" class="edge">
<title>Node4&#45;&gt;Node5</title>
<g id="a_edge4_Node000004_Node000005"><a xlink:title=" ">
<path fill="none" stroke="#63b8ff" d="M232.33,-55.59C217.98,-47.44 196.95,-35.48 180.27,-26"/>
<polygon fill="#63b8ff" stroke="#63b8ff" points="182.29,-23.13 171.87,-21.23 178.83,-29.21 182.29,-23.13"/>
</a>
</g>
</g>
<!-- Node7 -->
<g id="Node000007" class="node">
<title>Node7</title>
<g id="a_Node000007"><a xlink:href="_x_base_8h.html" target="_top" xlink:title=" ">
<polygon fill="white" stroke="#666666" points="332.62,-20 279.12,-20 279.12,0 332.62,0 332.62,-20"/>
<text xml:space="preserve" text-anchor="middle" x="305.88" y="-6.5" font-family="Helvetica,sans-Serif" font-size="10.00">XBase.h</text>
</a>
</g>
</g>
<!-- Node4&#45;&gt;Node7 -->
<g id="edge5_Node000004_Node000007" class="edge">
<title>Node4&#45;&gt;Node7</title>
<g id="a_edge5_Node000004_Node000007"><a xlink:title=" ">
<path fill="none" stroke="#63b8ff" d="M258.8,-55.59C266.81,-48.01 278.29,-37.13 287.91,-28.02"/>
<polygon fill="#63b8ff" stroke="#63b8ff" points="290.11,-30.76 294.96,-21.34 285.29,-25.68 290.11,-30.76"/>
</a>
</g>
</g>
<!-- Node9&#45;&gt;Node4 -->
<g id="edge8_Node000009_Node000004" class="edge">
<title>Node9&#45;&gt;Node4</title>
<g id="a_edge8_Node000009_Node000004"><a xlink:title=" ">
<path fill="none" stroke="#63b8ff" d="M276.95,-111.59C272.52,-104.55 266.3,-94.67 260.84,-86"/>
<polygon fill="#63b8ff" stroke="#63b8ff" points="263.83,-84.18 255.54,-77.58 257.9,-87.91 263.83,-84.18"/>
</a>
</g>
</g>
<!-- Node9&#45;&gt;Node7 -->
<g id="edge7_Node000009_Node000007" class="edge">
<title>Node9&#45;&gt;Node7</title>
<g id="a_edge7_Node000009_Node000007"><a xlink:title=" ">
<path fill="none" stroke="#63b8ff" d="M284.84,-111.62C288.54,-93.92 296.63,-55.24 301.63,-31.32"/>
<polygon fill="#63b8ff" stroke="#63b8ff" points="304.99,-32.34 303.61,-21.84 298.14,-30.91 304.99,-32.34"/>
</a>
</g>
</g>
<!-- Node10&#45;&gt;Node5 -->
<g id="edge10_Node000010_Node000005" class="edge">
<title>Node10&#45;&gt;Node5</title>
<g id="a_edge10_Node000010_Node000005"><a xlink:title=" ">
<path fill="none" stroke="#63b8ff" d="M178.89,-167.72C177.52,-155.09 174.85,-131.79 171.88,-112 167.68,-84.13 161.79,-52.12 157.91,-31.74"/>
<polygon fill="#63b8ff" stroke="#63b8ff" points="161.35,-31.08 156.02,-21.93 154.47,-32.41 161.35,-31.08"/>
</a>
</g>
</g>
<!-- Node11 -->
<g id="Node000011" class="node">
<title>Node11</title>
<g id="a_Node000011"><a xlink:href="_x_string_8h.html" target="_top" xlink:title=" ">
<polygon fill="#fff0f0" stroke="red" points="163.12,-132 106.62,-132 106.62,-112 163.12,-112 163.12,-132"/>
<text xml:space="preserve" text-anchor="middle" x="134.88" y="-118.5" font-family="Helvetica,sans-Serif" font-size="10.00">XString.h</text>
</a>
</g>
</g>
<!-- Node10&#45;&gt;Node11 -->
<g id="edge11_Node000010_Node000011" class="edge">
<title>Node10&#45;&gt;Node11</title>
<g id="a_edge11_Node000010_Node000011"><a xlink:title=" ">
<path fill="none" stroke="#63b8ff" d="M172.04,-167.59C165.91,-160.24 157.2,-149.8 149.76,-140.87"/>
<polygon fill="#63b8ff" stroke="#63b8ff" points="152.68,-138.9 143.59,-133.46 147.31,-143.38 152.68,-138.9"/>
</a>
</g>
</g>
<!-- Node11&#45;&gt;Node4 -->
<g id="edge14_Node000011_Node000004" class="edge">
<title>Node11&#45;&gt;Node4</title>
<g id="a_edge14_Node000011_Node000004"><a xlink:title=" ">
<path fill="none" stroke="#63b8ff" d="M154.73,-111.59C172.36,-103.24 198.38,-90.92 218.6,-81.34"/>
<polygon fill="#63b8ff" stroke="#63b8ff" points="219.96,-84.57 227.49,-77.13 216.96,-78.25 219.96,-84.57"/>
</a>
</g>
</g>
<!-- Node11&#45;&gt;Node5 -->
<g id="edge12_Node000011_Node000005" class="edge">
<title>Node11&#45;&gt;Node5</title>
<g id="a_edge12_Node000011_Node000005"><a xlink:title=" ">
<path fill="none" stroke="#63b8ff" d="M134.94,-111.66C135.17,-98.95 136.13,-75.56 139.88,-56 141.45,-47.77 144,-38.93 146.5,-31.28"/>
<polygon fill="#63b8ff" stroke="#63b8ff" points="149.78,-32.52 149.74,-21.93 143.16,-30.23 149.78,-32.52"/>
</a>
</g>
</g>
<!-- Node11&#45;&gt;Node7 -->
<g id="edge13_Node000011_Node000007" class="edge">
<title>Node11&#45;&gt;Node7</title>
<g id="a_edge13_Node000011_Node000007"><a xlink:title=" ">
<path fill="none" stroke="#63b8ff" d="M144.06,-111.71C157.73,-98.23 184.65,-72.99 210.88,-56 229.82,-43.72 252.64,-32.8 271.17,-24.79"/>
<polygon fill="#63b8ff" stroke="#63b8ff" points="272.27,-28.13 280.13,-21.02 269.55,-21.68 272.27,-28.13"/>
</a>
</g>
</g>
<!-- Node17&#45;&gt;Node4 -->
<g id="edge17_Node000017_Node000004" class="edge">
<title>Node17&#45;&gt;Node4</title>
<g id="a_edge17_Node000017_Node000004"><a xlink:title=" ">
<path fill="none" stroke="#63b8ff" d="M335.59,-111.59C319.57,-103.36 296.04,-91.26 277.53,-81.74"/>
<polygon fill="#63b8ff" stroke="#63b8ff" points="279.15,-78.63 268.65,-77.17 275.95,-84.86 279.15,-78.63"/>
</a>
</g>
</g>
<!-- Node17&#45;&gt;Node7 -->
<g id="edge16_Node000017_Node000007" class="edge">
<title>Node17&#45;&gt;Node7</title>
<g id="a_edge16_Node000017_Node000007"><a xlink:title=" ">
<path fill="none" stroke="#63b8ff" d="M349.78,-111.62C341.99,-93.76 324.87,-54.53 314.46,-30.67"/>
<polygon fill="#63b8ff" stroke="#63b8ff" points="317.77,-29.51 310.56,-21.74 311.35,-32.31 317.77,-29.51"/>
</a>
</g>
</g>
<!-- Node18&#45;&gt;Node3 -->
<g id="edge20_Node000018_Node000003" class="edge">
<title>Node18&#45;&gt;Node3</title>
<g id="a_edge20_Node000018_Node000003"><a xlink:title=" ">
<path fill="none" stroke="#63b8ff" d="M201.76,-279.59C208.78,-272.16 218.78,-261.58 227.27,-252.58"/>
<polygon fill="#63b8ff" stroke="#63b8ff" points="229.73,-255.07 234.05,-245.4 224.64,-250.27 229.73,-255.07"/>
</a>
</g>
</g>
<!-- Node18&#45;&gt;Node5 -->
<g id="edge19_Node000018_Node000005" class="edge">
<title>Node18&#45;&gt;Node5</title>
<g id="a_edge19_Node000018_Node000005"><a xlink:title=" ">
<path fill="none" stroke="#63b8ff" d="M160.57,-281.28C139.62,-274.69 113.28,-263.15 96.88,-244 77.29,-221.14 77.88,-209.1 77.88,-179 77.88,-179 77.88,-179 77.88,-121 77.88,-82.24 110.21,-47.24 132.7,-27.59"/>
<polygon fill="#63b8ff" stroke="#63b8ff" points="134.74,-30.44 140.16,-21.34 130.25,-25.08 134.74,-30.44"/>
</a>
</g>
</g>
<!-- Node19&#45;&gt;Node11 -->
<g id="edge22_Node000019_Node000011" class="edge">
<title>Node19&#45;&gt;Node11</title>
<g id="a_edge22_Node000019_Node000011"><a xlink:title=" ">
<path fill="none" stroke="#63b8ff" d="M137.62,-223.62C137.14,-206.01 136.09,-167.59 135.44,-143.65"/>
<polygon fill="#63b8ff" stroke="#63b8ff" points="138.94,-143.77 135.17,-133.87 131.95,-143.96 138.94,-143.77"/>
</a>
</g>
</g>
<!-- Node20&#45;&gt;Node7 -->
<g id="edge24_Node000020_Node000007" class="edge">
<title>Node20&#45;&gt;Node7</title>
<g id="a_edge24_Node000020_Node000007"><a xlink:title=" ">
<path fill="none" stroke="#63b8ff" d="M405.11,-167.71C403.73,-154.67 400.07,-130.45 390.88,-112 374.2,-78.56 344.29,-46.75 324.77,-28.06"/>
<polygon fill="#63b8ff" stroke="#63b8ff" points="327.41,-25.74 317.72,-21.46 322.63,-30.85 327.41,-25.74"/>
</a>
</g>
</g>
<!-- Node21&#45;&gt;Node2 -->
<g id="edge26_Node000021_Node000002" class="edge">
<title>Node21&#45;&gt;Node2</title>
<g id="a_edge26_Node000021_Node000002"><a xlink:title=" ">
<path fill="none" stroke="#63b8ff" d="M192.88,-391.59C192.88,-385.01 192.88,-375.96 192.88,-367.73"/>
<polygon fill="#63b8ff" stroke="#63b8ff" points="196.38,-367.81 192.88,-357.81 189.38,-367.81 196.38,-367.81"/>
</a>
</g>
</g>
<!-- Node22&#45;&gt;Node11 -->
<g id="edge28_Node000022_Node000011" class="edge">
<title>Node22&#45;&gt;Node11</title>
<g id="a_edge28_Node000022_Node000011"><a xlink:title=" ">
<path fill="none" stroke="#63b8ff" d="M66.07,-335.81C70.99,-315.47 83.53,-265.22 96.88,-224 106.09,-195.53 118.6,-163.26 126.71,-143.02"/>
<polygon fill="#63b8ff" stroke="#63b8ff" points="129.95,-144.35 130.45,-133.77 123.46,-141.73 129.95,-144.35"/>
</a>
</g>
</g>
</g>
</svg>
