<?xml version="1.0" encoding="UTF-8" standalone="no"?>
<!DOCTYPE svg PUBLIC "-//W3C//DTD SVG 1.1//EN"
 "http://www.w3.org/Graphics/SVG/1.1/DTD/svg11.dtd">
<!-- Generated by graphviz version 14.1.0 (20251206.1807)
 -->
<!-- Title: DIOSTREAMTLS_MSG_EXTENSION_LIST::List_GetLength Pages: 1 -->
<svg width="415pt" height="190pt"
 viewBox="0.00 0.00 415.00 190.00" xmlns="http://www.w3.org/2000/svg" xmlns:xlink="http://www.w3.org/1999/xlink">
<g id="graph0" class="graph" transform="scale(1 1) rotate(0) translate(4 186)">
<title>DIOSTREAMTLS_MSG_EXTENSION_LIST::List_GetLength</title>
<!-- Node1 -->
<g id="Node000001" class="node">
<title>Node1</title>
<g id="a_Node000001"><a xlink:title=" ">
<polygon fill="#999999" stroke="#666666" points="407,-107 221.5,-107 221.5,-75 407,-75 407,-107"/>
<text xml:space="preserve" text-anchor="start" x="229.5" y="-93.5" font-family="Helvetica,sans-Serif" font-size="10.00">DIOSTREAMTLS_MSG_EXTENSION</text>
<text xml:space="preserve" text-anchor="middle" x="314.25" y="-81.5" font-family="Helvetica,sans-Serif" font-size="10.00">_LIST::List_GetLength</text>
</a>
</g>
</g>
<!-- Node2 -->
<g id="Node000002" class="node">
<title>Node2</title>
<g id="a_Node000002"><a xlink:href="class_d_i_o_s_t_r_e_a_m_t_l_s___m_s_g___e_x_t_e_n_s_i_o_n___l_i_s_t.html#ad9b0e679c61e97b0d0d4fb85d1679fad" target="_top" xlink:title=" ">
<polygon fill="white" stroke="#666666" points="185.5,-182 0,-182 0,-150 185.5,-150 185.5,-182"/>
<text xml:space="preserve" text-anchor="start" x="8" y="-168.5" font-family="Helvetica,sans-Serif" font-size="10.00">DIOSTREAMTLS_MSG_EXTENSION</text>
<text xml:space="preserve" text-anchor="middle" x="92.75" y="-156.5" font-family="Helvetica,sans-Serif" font-size="10.00">_LIST::CopyFrom</text>
</a>
</g>
</g>
<!-- Node1&#45;&gt;Node2 -->
<g id="edge1_Node000001_Node000002" class="edge">
<title>Node1&#45;&gt;Node2</title>
<g id="a_edge1_Node000001_Node000002"><a xlink:title=" ">
<path fill="none" stroke="#63b8ff" d="M264.08,-111.67C240.52,-121.2 211.78,-132.31 185.5,-141 176.57,-143.96 167.06,-146.84 157.68,-149.53"/>
<polygon fill="#63b8ff" stroke="#63b8ff" points="265.17,-115 273.11,-107.98 262.52,-108.52 265.17,-115"/>
</a>
</g>
</g>
<!-- Node3 -->
<g id="Node000003" class="node">
<title>Node3</title>
<g id="a_Node000003"><a xlink:href="class_d_i_o_s_t_r_e_a_m_t_l_s___m_s_g___e_x_t_e_n_s_i_o_n___l_i_s_t.html#aeb82b526749a0feaa6be61d3561a8572" target="_top" xlink:title=" ">
<polygon fill="white" stroke="#666666" points="185.5,-132 0,-132 0,-100 185.5,-100 185.5,-132"/>
<text xml:space="preserve" text-anchor="start" x="8" y="-118.5" font-family="Helvetica,sans-Serif" font-size="10.00">DIOSTREAMTLS_MSG_EXTENSION</text>
<text xml:space="preserve" text-anchor="middle" x="92.75" y="-106.5" font-family="Helvetica,sans-Serif" font-size="10.00">_LIST::CopyTo</text>
</a>
</g>
</g>
<!-- Node1&#45;&gt;Node3 -->
<g id="edge2_Node000001_Node000003" class="edge">
<title>Node1&#45;&gt;Node3</title>
<g id="a_edge2_Node000001_Node000003"><a xlink:title=" ">
<path fill="none" stroke="#63b8ff" d="M209.89,-102.77C201.92,-103.68 193.9,-104.59 186,-105.49"/>
<polygon fill="#63b8ff" stroke="#63b8ff" points="210.07,-106.27 219.61,-101.66 209.28,-99.32 210.07,-106.27"/>
</a>
</g>
</g>
<!-- Node4 -->
<g id="Node000004" class="node">
<title>Node4</title>
<g id="a_Node000004"><a xlink:href="class_d_i_o_s_t_r_e_a_m_t_l_s___m_s_g___e_x_t_e_n_s_i_o_n___l_i_s_t.html#a13eb69fa86647e1bda879507e9ed98b0" target="_top" xlink:title="get from buffer">
<polygon fill="white" stroke="#666666" points="185.5,-82 0,-82 0,-50 185.5,-50 185.5,-82"/>
<text xml:space="preserve" text-anchor="start" x="8" y="-68.5" font-family="Helvetica,sans-Serif" font-size="10.00">DIOSTREAMTLS_MSG_EXTENSION</text>
<text xml:space="preserve" text-anchor="middle" x="92.75" y="-56.5" font-family="Helvetica,sans-Serif" font-size="10.00">_LIST::GetFromBuffer</text>
</a>
</g>
</g>
<!-- Node1&#45;&gt;Node4 -->
<g id="edge3_Node000001_Node000004" class="edge">
<title>Node1&#45;&gt;Node4</title>
<g id="a_edge3_Node000001_Node000004"><a xlink:title=" ">
<path fill="none" stroke="#63b8ff" d="M209.89,-79.23C201.92,-78.32 193.9,-77.41 186,-76.51"/>
<polygon fill="#63b8ff" stroke="#63b8ff" points="209.28,-82.68 219.61,-80.34 210.07,-75.73 209.28,-82.68"/>
</a>
</g>
</g>
<!-- Node5 -->
<g id="Node000005" class="node">
<title>Node5</title>
<g id="a_Node000005"><a xlink:href="class_d_i_o_s_t_r_e_a_m_t_l_s___m_s_g___e_x_t_e_n_s_i_o_n___l_i_s_t.html#afdc8cb3342bcf898e841330ce1224390" target="_top" xlink:title=" ">
<polygon fill="white" stroke="#666666" points="185.5,-32 0,-32 0,0 185.5,0 185.5,-32"/>
<text xml:space="preserve" text-anchor="start" x="8" y="-18.5" font-family="Helvetica,sans-Serif" font-size="10.00">DIOSTREAMTLS_MSG_EXTENSION</text>
<text xml:space="preserve" text-anchor="middle" x="92.75" y="-6.5" font-family="Helvetica,sans-Serif" font-size="10.00">_LIST::List_Add</text>
</a>
</g>
</g>
<!-- Node1&#45;&gt;Node5 -->
<g id="edge4_Node000001_Node000005" class="edge">
<title>Node1&#45;&gt;Node5</title>
<g id="a_edge4_Node000001_Node000005"><a xlink:title=" ">
<path fill="none" stroke="#63b8ff" d="M264.08,-70.33C240.52,-60.8 211.78,-49.69 185.5,-41 176.57,-38.04 167.06,-35.16 157.68,-32.47"/>
<polygon fill="#63b8ff" stroke="#63b8ff" points="262.52,-73.48 273.11,-74.02 265.17,-67 262.52,-73.48"/>
</a>
</g>
</g>
</g>
</svg>
