<?xml version="1.0" encoding="UTF-8" standalone="no"?>
<!DOCTYPE svg PUBLIC "-//W3C//DTD SVG 1.1//EN"
 "http://www.w3.org/Graphics/SVG/1.1/DTD/svg11.dtd">
<!-- Generated by graphviz version 14.1.0 (20251206.1807)
 -->
<!-- Title: DIOWEBSERVER::GetAuthentication Pages: 1 -->
<svg width="411pt" height="66pt"
 viewBox="0.00 0.00 411.00 66.00" xmlns="http://www.w3.org/2000/svg" xmlns:xlink="http://www.w3.org/1999/xlink">
<g id="graph0" class="graph" transform="scale(1 1) rotate(0) translate(4 62)">
<title>DIOWEBSERVER::GetAuthentication</title>
<!-- Node1 -->
<g id="Node000001" class="node">
<title>Node1</title>
<g id="a_Node000001"><a xlink:title="Get authentication.">
<polygon fill="#999999" stroke="#666666" points="402.5,-39 220,-39 220,-19 402.5,-19 402.5,-39"/>
<text xml:space="preserve" text-anchor="middle" x="311.25" y="-25.5" font-family="Helvetica,sans-Serif" font-size="10.00">DIOWEBSERVER::GetAuthentication</text>
</a>
</g>
</g>
<!-- Node2 -->
<g id="Node000002" class="node">
<title>Node2</title>
<g id="a_Node000002"><a xlink:href="group___d_a_t_a_i_o.html#gaf53fc8979737bde832fa3d26ee892169" target="_top" xlink:title="Add authentication.">
<polygon fill="white" stroke="#666666" points="184,-58 0,-58 0,-38 184,-38 184,-58"/>
<text xml:space="preserve" text-anchor="middle" x="92" y="-44.5" font-family="Helvetica,sans-Serif" font-size="10.00">DIOWEBSERVER::AddAuthentication</text>
</a>
</g>
</g>
<!-- Node1&#45;&gt;Node2 -->
<g id="edge1_Node000001_Node000002" class="edge">
<title>Node1&#45;&gt;Node2</title>
<g id="a_edge1_Node000001_Node000002"><a xlink:title=" ">
<path fill="none" stroke="#63b8ff" d="M208.43,-37.9C200.43,-38.6 192.39,-39.31 184.46,-40"/>
<polygon fill="#63b8ff" stroke="#63b8ff" points="208.52,-41.41 218.18,-37.05 207.91,-34.44 208.52,-41.41"/>
</a>
</g>
</g>
<!-- Node3 -->
<g id="Node000003" class="node">
<title>Node3</title>
<g id="a_Node000003"><a xlink:href="group___d_a_t_a_i_o.html#gac00bc7d71885efb348cf74856853c4e0" target="_top" xlink:title="Del authentication.">
<polygon fill="white" stroke="#666666" points="182.88,-20 1.12,-20 1.12,0 182.88,0 182.88,-20"/>
<text xml:space="preserve" text-anchor="middle" x="92" y="-6.5" font-family="Helvetica,sans-Serif" font-size="10.00">DIOWEBSERVER::DelAuthentication</text>
</a>
</g>
</g>
<!-- Node1&#45;&gt;Node3 -->
<g id="edge2_Node000001_Node000003" class="edge">
<title>Node1&#45;&gt;Node3</title>
<g id="a_edge2_Node000001_Node000003"><a xlink:title=" ">
<path fill="none" stroke="#63b8ff" d="M208.27,-20.08C199.85,-19.34 191.38,-18.6 183.06,-17.88"/>
<polygon fill="#63b8ff" stroke="#63b8ff" points="207.91,-23.56 218.18,-20.95 208.52,-16.59 207.91,-23.56"/>
</a>
</g>
</g>
</g>
</svg>
