<?xml version="1.0" encoding="UTF-8" standalone="no"?>
<!DOCTYPE svg PUBLIC "-//W3C//DTD SVG 1.1//EN"
 "http://www.w3.org/Graphics/SVG/1.1/DTD/svg11.dtd">
<!-- Generated by graphviz version 14.1.0 (20251206.1807)
 -->
<!-- Title: DIOSTREAMDEVICEIP::SetIsActive Pages: 1 -->
<svg width="419pt" height="90pt"
 viewBox="0.00 0.00 419.00 90.00" xmlns="http://www.w3.org/2000/svg" xmlns:xlink="http://www.w3.org/1999/xlink">
<g id="graph0" class="graph" transform="scale(1 1) rotate(0) translate(4 86)">
<title>DIOSTREAMDEVICEIP::SetIsActive</title>
<!-- Node1 -->
<g id="Node000001" class="node">
<title>Node1</title>
<g id="a_Node000001"><a xlink:title="Set is active.">
<polygon fill="#999999" stroke="#666666" points="410.75,-57 280.75,-57 280.75,-25 410.75,-25 410.75,-57"/>
<text xml:space="preserve" text-anchor="start" x="288.75" y="-43.5" font-family="Helvetica,sans-Serif" font-size="10.00">DIOSTREAMDEVICEIP::</text>
<text xml:space="preserve" text-anchor="middle" x="345.75" y="-31.5" font-family="Helvetica,sans-Serif" font-size="10.00">SetIsActive</text>
</a>
</g>
</g>
<!-- Node2 -->
<g id="Node000002" class="node">
<title>Node2</title>
<g id="a_Node000002"><a xlink:href="group___p_l_a_t_f_o_r_m___l_i_n_u_x.html#ga9d0acfe536de225af8531de05f87758b" target="_top" xlink:title="Search.">
<polygon fill="white" stroke="#666666" points="233.88,-82 10.88,-82 10.88,-50 233.88,-50 233.88,-82"/>
<text xml:space="preserve" text-anchor="start" x="18.88" y="-68.5" font-family="Helvetica,sans-Serif" font-size="10.00">DIOLINUXSTREAMIPLOCALENUMDEVICES</text>
<text xml:space="preserve" text-anchor="middle" x="122.38" y="-56.5" font-family="Helvetica,sans-Serif" font-size="10.00">::Search</text>
</a>
</g>
</g>
<!-- Node1&#45;&gt;Node2 -->
<g id="edge1_Node000001_Node000002" class="edge">
<title>Node1&#45;&gt;Node2</title>
<g id="a_edge1_Node000001_Node000002"><a xlink:title=" ">
<path fill="none" stroke="#63b8ff" d="M269.28,-49.52C257.94,-50.8 246.05,-52.15 234.15,-53.49"/>
<polygon fill="#63b8ff" stroke="#63b8ff" points="269.37,-53.03 278.92,-48.43 268.59,-46.08 269.37,-53.03"/>
</a>
</g>
</g>
<!-- Node3 -->
<g id="Node000003" class="node">
<title>Node3</title>
<g id="a_Node000003"><a xlink:href="group___p_l_a_t_f_o_r_m___w_i_n_d_o_w_s.html#ga654acdc42b0a6ae7accbe8b9b8c696c5" target="_top" xlink:title="Search.">
<polygon fill="white" stroke="#666666" points="244.75,-32 0,-32 0,0 244.75,0 244.75,-32"/>
<text xml:space="preserve" text-anchor="start" x="8" y="-18.5" font-family="Helvetica,sans-Serif" font-size="10.00">DIOWINDOWSSTREAMIPLOCALENUMDEVICES</text>
<text xml:space="preserve" text-anchor="middle" x="122.38" y="-6.5" font-family="Helvetica,sans-Serif" font-size="10.00">::Search</text>
</a>
</g>
</g>
<!-- Node1&#45;&gt;Node3 -->
<g id="edge2_Node000001_Node000003" class="edge">
<title>Node1&#45;&gt;Node3</title>
<g id="a_edge2_Node000001_Node000003"><a xlink:title=" ">
<path fill="none" stroke="#63b8ff" d="M269.13,-32.46C261.29,-31.57 253.18,-30.66 244.99,-29.73"/>
<polygon fill="#63b8ff" stroke="#63b8ff" points="268.59,-35.92 278.92,-33.57 269.37,-28.97 268.59,-35.92"/>
</a>
</g>
</g>
</g>
</svg>
