<?xml version="1.0" encoding="UTF-8" standalone="no"?>
<!DOCTYPE svg PUBLIC "-//W3C//DTD SVG 1.1//EN"
 "http://www.w3.org/Graphics/SVG/1.1/DTD/svg11.dtd">
<!-- Generated by graphviz version 14.1.0 (20251206.1807)
 -->
<!-- Title: INPDEVICE::GetButtons Pages: 1 -->
<!--zoomable 218 -->

<svg id="main" version="1.1" xmlns="http://www.w3.org/2000/svg" xmlns:xlink="http://www.w3.org/1999/xlink" xml:space="preserve" onload="init(evt)">

<style type="text/css"><![CDATA[
.node, .edge {opacity: 0.7;}
.node.selected, .edge.selected {opacity: 1;}
.edge:hover path { stroke: red; }
.edge:hover polygon { stroke: red; fill: red; }
]]></style>

<defs>
  <circle id="rim" cx="0" cy="0" r="7"/>
  <circle id="rim2" cx="0" cy="0" r="3.5"/>
  <g id="zoomPlus">
    <use xlink:href="#rim" fill="#404040"><set attributeName="fill" to="#808080" begin="zoomplus.mouseover" end="zoomplus.mouseout"/></use>
    <path d="M-4,0h8M0,-4v8" fill="none" stroke="white" stroke-width="1.5" pointer-events="none"/>
  </g>
  <g id="zoomMin">
    <use xlink:href="#rim" fill="#404040"><set attributeName="fill" to="#808080" begin="zoomminus.mouseover" end="zoomminus.mouseout"/></use>
    <path d="M-4,0h8" fill="none" stroke="white" stroke-width="1.5" pointer-events="none"/>
  </g>
  <g id="arrowUp" transform="translate(30 24)">
    <use xlink:href="#rim"/>
    <path pointer-events="none" fill="none" stroke="white" stroke-width="1.5" d="M0,-3.0v7 M-2.5,-0.5L0,-3.0L2.5,-0.5"/>
  </g>
  <g id="arrowRight" transform="rotate(90) translate(36 -43)">
    <use xlink:href="#rim"/>
    <path pointer-events="none" fill="none" stroke="white" stroke-width="1.5" d="M0,-3.0v7 M-2.5,-0.5L0,-3.0L2.5,-0.5"/>
  </g>
  <g id="arrowDown" transform="rotate(180) translate(-30 -48)">
    <use xlink:href="#rim"/>
    <path pointer-events="none" fill="none" stroke="white" stroke-width="1.5" d="M0,-3.0v7 M-2.5,-0.5L0,-3.0L2.5,-0.5"/>
  </g>
  <g id="arrowLeft" transform="rotate(270) translate(-36 17)">
    <use xlink:href="#rim"/>
    <path pointer-events="none" fill="none" stroke="white" stroke-width="1.5" d="M0,-3.0v7 M-2.5,-0.5L0,-3.0L2.5,-0.5"/>
  </g>
  <g id="resetDef">
    <use xlink:href="#rim2" fill="#404040"><set attributeName="fill" to="#808080" begin="reset.mouseover" end="reset.mouseout"/></use>
  </g>
</defs>
<script type="application/ecmascript">
var viewWidth = 583;
var viewHeight = 218;
var sectionId = 'dynsection-22';
</script>
<script type="application/ecmascript" xlink:href="svg.min.js"/>
<svg id="graph" class="graph">
<g id="viewport">
<title>INPDEVICE::GetButtons</title>
<!-- Node1 -->
<g id="Node000001" class="node">
<title>Node1</title>
<g id="a_Node000001"><a xlink:title="Get buttons.">
<polygon fill="#999999" stroke="#666666" points="574.5,-115 447.5,-115 447.5,-95 574.5,-95 574.5,-115"/>
<text xml:space="preserve" text-anchor="middle" x="511" y="-101.5" font-family="Helvetica,sans-Serif" font-size="10.00">INPDEVICE::GetButtons</text>
</a>
</g>
</g>
<!-- Node2 -->
<g id="Node000002" class="node">
<title>Node2</title>
<g id="a_Node000002"><a xlink:href="group___i_n_p_u_t.html#gaa5be07f0b103a6ec8f627298c2b75a36" target="_top" xlink:title="Get button.">
<polygon fill="white" stroke="#666666" points="393.88,-172 272.12,-172 272.12,-152 393.88,-152 393.88,-172"/>
<text xml:space="preserve" text-anchor="middle" x="333" y="-158.5" font-family="Helvetica,sans-Serif" font-size="10.00">INPDEVICE::GetButton</text>
</a>
</g>
</g>
<!-- Node1&#45;&gt;Node2 -->
<g id="edge1_Node000001_Node000002" class="edge">
<title>Node1&#45;&gt;Node2</title>
<g id="a_edge1_Node000001_Node000002"><a xlink:title=" ">
<path fill="none" stroke="#63b8ff" d="M474.97,-119.77C456.32,-127.31 432.89,-136.28 411.5,-143 401.72,-146.07 391.12,-148.96 380.99,-151.5"/>
<polygon fill="#63b8ff" stroke="#63b8ff" points="476.29,-123.01 484.22,-115.98 473.63,-116.53 476.29,-123.01"/>
</a>
</g>
</g>
<!-- Node3 -->
<g id="Node000003" class="node">
<title>Node3</title>
<g id="a_Node000003"><a xlink:href="group___i_n_p_u_t.html#gaa01ced77389c010c8b7efbbd0614237a" target="_top" xlink:title="Is press button.">
<polygon fill="white" stroke="#666666" points="179.12,-210 39.38,-210 39.38,-190 179.12,-190 179.12,-210"/>
<text xml:space="preserve" text-anchor="middle" x="109.25" y="-196.5" font-family="Helvetica,sans-Serif" font-size="10.00">INPDEVICE::IsPressButton</text>
</a>
</g>
</g>
<!-- Node1&#45;&gt;Node3 -->
<g id="edge10_Node000001_Node000003" class="edge">
<title>Node1&#45;&gt;Node3</title>
<g id="a_edge10_Node000001_Node000003"><a xlink:title=" ">
<path fill="none" stroke="#63b8ff" d="M492.72,-123.67C474.5,-141.95 443.98,-168.77 411.5,-181 335.85,-209.48 241.99,-210.54 179.34,-206.88"/>
<polygon fill="#63b8ff" stroke="#63b8ff" points="495.14,-126.2 499.58,-116.57 490.11,-121.33 495.14,-126.2"/>
</a>
</g>
</g>
<!-- Node5 -->
<g id="Node000005" class="node">
<title>Node5</title>
<g id="a_Node000005"><a xlink:href="group___i_n_p_u_t.html#ga0ce830f55495af3750bc30ea901d49bf" target="_top" xlink:title="Get button.">
<polygon fill="white" stroke="#666666" points="393.88,-134 272.12,-134 272.12,-114 393.88,-114 393.88,-134"/>
<text xml:space="preserve" text-anchor="middle" x="333" y="-120.5" font-family="Helvetica,sans-Serif" font-size="10.00">INPDEVICE::GetButton</text>
</a>
</g>
</g>
<!-- Node1&#45;&gt;Node5 -->
<g id="edge4_Node000001_Node000005" class="edge">
<title>Node1&#45;&gt;Node5</title>
<g id="a_edge4_Node000001_Node000005"><a xlink:title=" ">
<path fill="none" stroke="#63b8ff" d="M436.35,-112.95C422.33,-114.46 407.82,-116.03 394.28,-117.49"/>
<polygon fill="#63b8ff" stroke="#63b8ff" points="436.38,-116.47 445.95,-111.91 435.63,-109.51 436.38,-116.47"/>
</a>
</g>
</g>
<!-- Node6 -->
<g id="Node000006" class="node">
<title>Node6</title>
<g id="a_Node000006"><a xlink:href="group___i_n_p_u_t.html#gad8862b241978876a4c381a216563630e" target="_top" xlink:title="Get button by code.">
<polygon fill="white" stroke="#666666" points="411.5,-96 254.5,-96 254.5,-76 411.5,-76 411.5,-96"/>
<text xml:space="preserve" text-anchor="middle" x="333" y="-82.5" font-family="Helvetica,sans-Serif" font-size="10.00">INPDEVICE::GetButtonByCode</text>
</a>
</g>
</g>
<!-- Node1&#45;&gt;Node6 -->
<g id="edge5_Node000001_Node000006" class="edge">
<title>Node1&#45;&gt;Node6</title>
<g id="a_edge5_Node000001_Node000006"><a xlink:title=" ">
<path fill="none" stroke="#63b8ff" d="M436.18,-97.03C428.1,-96.16 419.87,-95.27 411.75,-94.39"/>
<polygon fill="#63b8ff" stroke="#63b8ff" points="435.63,-100.49 445.95,-98.09 436.38,-93.53 435.63,-100.49"/>
</a>
</g>
</g>
<!-- Node9 -->
<g id="Node000009" class="node">
<title>Node9</title>
<g id="a_Node000009"><a xlink:href="group___i_n_p_u_t.html#ga079b82d9968cd54f78cfd8e81761645d" target="_top" xlink:title="Get button state.">
<polygon fill="white" stroke="#666666" points="405.5,-58 260.5,-58 260.5,-38 405.5,-38 405.5,-58"/>
<text xml:space="preserve" text-anchor="middle" x="333" y="-44.5" font-family="Helvetica,sans-Serif" font-size="10.00">INPDEVICE::GetButtonState</text>
</a>
</g>
</g>
<!-- Node1&#45;&gt;Node9 -->
<g id="edge8_Node000001_Node000009" class="edge">
<title>Node1&#45;&gt;Node9</title>
<g id="a_edge8_Node000001_Node000009"><a xlink:title=" ">
<path fill="none" stroke="#63b8ff" d="M474.97,-90.23C456.32,-82.69 432.89,-73.72 411.5,-67 401.72,-63.93 391.12,-61.04 380.99,-58.5"/>
<polygon fill="#63b8ff" stroke="#63b8ff" points="473.63,-93.47 484.22,-94.02 476.29,-86.99 473.63,-93.47"/>
</a>
</g>
</g>
<!-- Node10 -->
<g id="Node000010" class="node">
<title>Node10</title>
<g id="a_Node000010"><a xlink:href="group___i_n_p_u_t.html#gadf74b3684fd2c033fe4254fa57aebc2b" target="_top" xlink:title="Get N buttons.">
<polygon fill="white" stroke="#666666" points="400.25,-20 265.75,-20 265.75,0 400.25,0 400.25,-20"/>
<text xml:space="preserve" text-anchor="middle" x="333" y="-6.5" font-family="Helvetica,sans-Serif" font-size="10.00">INPDEVICE::GetNButtons</text>
</a>
</g>
</g>
<!-- Node1&#45;&gt;Node10 -->
<g id="edge9_Node000001_Node000010" class="edge">
<title>Node1&#45;&gt;Node10</title>
<g id="a_edge9_Node000001_Node000010"><a xlink:title=" ">
<path fill="none" stroke="#63b8ff" d="M491.61,-86.95C472.94,-69.6 442.44,-43.9 411.5,-29 404.39,-25.57 396.6,-22.73 388.79,-20.38"/>
<polygon fill="#63b8ff" stroke="#63b8ff" points="489.02,-89.31 498.68,-93.66 493.84,-84.24 489.02,-89.31"/>
</a>
</g>
</g>
<!-- Node2&#45;&gt;Node3 -->
<g id="edge2_Node000002_Node000003" class="edge">
<title>Node2&#45;&gt;Node3</title>
<g id="a_edge2_Node000002_Node000003"><a xlink:title=" ">
<path fill="none" stroke="#63b8ff" d="M260.48,-174.26C231.73,-179.18 198.92,-184.81 171.31,-189.54"/>
<polygon fill="#63b8ff" stroke="#63b8ff" points="260.94,-177.73 270.21,-172.59 259.76,-170.83 260.94,-177.73"/>
</a>
</g>
</g>
<!-- Node4 -->
<g id="Node000004" class="node">
<title>Node4</title>
<g id="a_Node000004"><a xlink:href="group___p_l_a_t_f_o_r_m___l_i_n_u_x.html#ga8bb30b5e4065c601d295e63cafd66a39" target="_top" xlink:title="Update.">
<polygon fill="white" stroke="#666666" points="218.5,-172 0,-172 0,-140 218.5,-140 218.5,-172"/>
<text xml:space="preserve" text-anchor="start" x="8" y="-158.5" font-family="Helvetica,sans-Serif" font-size="10.00">INPLINUXDEVICETOUCHSCREENDIRECT</text>
<text xml:space="preserve" text-anchor="middle" x="109.25" y="-146.5" font-family="Helvetica,sans-Serif" font-size="10.00">::Update</text>
</a>
</g>
</g>
<!-- Node2&#45;&gt;Node4 -->
<g id="edge3_Node000002_Node000004" class="edge">
<title>Node2&#45;&gt;Node4</title>
<g id="a_edge3_Node000002_Node000004"><a xlink:title=" ">
<path fill="none" stroke="#63b8ff" d="M260.27,-160.06C247,-159.7 232.86,-159.32 218.77,-158.94"/>
<polygon fill="#63b8ff" stroke="#63b8ff" points="260.09,-163.56 270.19,-160.33 260.28,-156.56 260.09,-163.56"/>
</a>
</g>
</g>
<!-- Node7 -->
<g id="Node000007" class="node">
<title>Node7</title>
<g id="a_Node000007"><a xlink:href="group___p_l_a_t_f_o_r_m___a_n_d_r_o_i_d.html#ga651fcef3834ba3ff73b9d9e0c01921f9" target="_top" xlink:title="On keyboard event.">
<polygon fill="white" stroke="#666666" points="198.25,-112 20.25,-112 20.25,-80 198.25,-80 198.25,-112"/>
<text xml:space="preserve" text-anchor="start" x="28.25" y="-98.5" font-family="Helvetica,sans-Serif" font-size="10.00">MAINPROCANDROID::OnKeyboard</text>
<text xml:space="preserve" text-anchor="middle" x="109.25" y="-86.5" font-family="Helvetica,sans-Serif" font-size="10.00">Event</text>
</a>
</g>
</g>
<!-- Node6&#45;&gt;Node7 -->
<g id="edge6_Node000006_Node000007" class="edge">
<title>Node6&#45;&gt;Node7</title>
<g id="a_edge6_Node000006_Node000007"><a xlink:title=" ">
<path fill="none" stroke="#63b8ff" d="M243.04,-90.01C228.38,-90.67 213.18,-91.36 198.54,-92.02"/>
<polygon fill="#63b8ff" stroke="#63b8ff" points="242.79,-93.53 252.62,-89.58 242.47,-86.53 242.79,-93.53"/>
</a>
</g>
</g>
<!-- Node8 -->
<g id="Node000008" class="node">
<title>Node8</title>
<g id="a_Node000008"><a xlink:href="group___p_l_a_t_f_o_r_m___l_i_n_u_x.html#gaa725b98d2d699f0233e8e286d3d7e605" target="_top" xlink:title="Update.">
<polygon fill="white" stroke="#666666" points="207.25,-62 11.25,-62 11.25,-30 207.25,-30 207.25,-62"/>
<text xml:space="preserve" text-anchor="start" x="19.25" y="-48.5" font-family="Helvetica,sans-Serif" font-size="10.00">INPLINUXDEVICEKEYBOARDDIRECT</text>
<text xml:space="preserve" text-anchor="middle" x="109.25" y="-36.5" font-family="Helvetica,sans-Serif" font-size="10.00">::Update</text>
</a>
</g>
</g>
<!-- Node6&#45;&gt;Node8 -->
<g id="edge7_Node000006_Node000008" class="edge">
<title>Node6&#45;&gt;Node8</title>
<g id="a_edge7_Node000006_Node000008"><a xlink:title=" ">
<path fill="none" stroke="#63b8ff" d="M262.82,-73.52C243.37,-70.01 221.9,-66.14 201.37,-62.44"/>
<polygon fill="#63b8ff" stroke="#63b8ff" points="262.08,-76.94 272.54,-75.27 263.32,-70.05 262.08,-76.94"/>
</a>
</g>
</g>
</g>
</svg>

<g id="navigator" transform="translate(0 0)" fill="#404254">
  <rect fill="#f2f5e9" fill-opacity="0.5" stroke="#606060" stroke-width=".5" x="0" y="0" width="60" height="60"/>
  <use id="zoomplus" xlink:href="#zoomPlus" x="17" y="9" onmousedown="handleZoom(evt,'in')"/>
  <use id="zoomminus" xlink:href="#zoomMin" x="42" y="9" onmousedown="handleZoom(evt,'out')"/>
  <use id="reset" xlink:href="#resetDef" x="30" y="36" onmousedown="handleReset()"/>
   <use id="arrowup" xlink:href="#arrowUp" x="0" y="0" onmousedown="handlePan(0,-1)"/>
  <use id="arrowright" xlink:href="#arrowRight" x="0" y="0" onmousedown="handlePan(1,0)"/>
  <use id="arrowdown" xlink:href="#arrowDown" x="0" y="0" onmousedown="handlePan(0,1)"/>
  <use id="arrowleft" xlink:href="#arrowLeft" x="0" y="0" onmousedown="handlePan(-1,0)"/>
</g>
<svg viewBox="0 0 15 15" width="100%" height="30px" preserveAspectRatio="xMaxYMin meet">
 <g id="arrow_out" transform="scale(0.3 0.3)">
  <a xlink:href="group___i_n_p_u_t_ga0e525fcc7cc0acf0c75db01596c90d16_icgraph_org.svg" target="_base">
   <rect id="button" ry="5" rx="5" y="6" x="6" height="38" width="38"
        fill="#f2f5e9" fill-opacity="0.5" stroke="#606060" stroke-width="1.0"/>
   <path id="arrow"
     d="M 11.500037,31.436501 C 11.940474,20.09759 22.043105,11.32322 32.158766,21.979434 L 37.068811,17.246167 C 37.068811,17.246167 37.088388,32 37.088388,32 L 22.160133,31.978069 C 22.160133,31.978069 26.997745,27.140456 26.997745,27.140456 C 18.528582,18.264221 13.291696,25.230495 11.500037,31.436501 z"
     style="fill:#404040;"/>
  </a>
 </g>
</svg>

<style type='text/css'>
<![CDATA[
[data-mouse-over-selected='false'] { opacity: 0.7; }
[data-mouse-over-selected='true']  { opacity: 1.0; }
]]>
</style>
<script type="application/ecmascript"><![CDATA[
document.addEventListener('DOMContentLoaded', (event) => {
  highlightEdges();
  highlightAdjacentNodes();
});
]]></script>
</svg>
