<?xml version="1.0" encoding="UTF-8" standalone="no"?>
<!DOCTYPE svg PUBLIC "-//W3C//DTD SVG 1.1//EN"
 "http://www.w3.org/Graphics/SVG/1.1/DTD/svg11.dtd">
<!-- Generated by graphviz version 14.1.0 (20251206.1807)
 -->
<!-- Title: DIOI2C3DCOMPASSLSM303DLHC::Configure Pages: 1 -->
<svg width="854pt" height="66pt"
 viewBox="0.00 0.00 854.00 66.00" xmlns="http://www.w3.org/2000/svg" xmlns:xlink="http://www.w3.org/1999/xlink">
<g id="graph0" class="graph" transform="scale(1 1) rotate(0) translate(4 62)">
<title>DIOI2C3DCOMPASSLSM303DLHC::Configure</title>
<!-- Node1 -->
<g id="Node000001" class="node">
<title>Node1</title>
<g id="a_Node000001"><a xlink:title="Configure.">
<polygon fill="#999999" stroke="#666666" points="175.75,-45 0,-45 0,-13 175.75,-13 175.75,-45"/>
<text xml:space="preserve" text-anchor="start" x="8" y="-31.5" font-family="Helvetica,sans-Serif" font-size="10.00">DIOI2C3DCOMPASSLSM303DLHC</text>
<text xml:space="preserve" text-anchor="middle" x="87.88" y="-19.5" font-family="Helvetica,sans-Serif" font-size="10.00">::Configure</text>
</a>
</g>
</g>
<!-- Node2 -->
<g id="Node000002" class="node">
<title>Node2</title>
<g id="a_Node000002"><a xlink:href="group___d_a_t_a_i_o.html#gaffa2a228690e583d4c7c2a5f4adf9821" target="_top" xlink:title="Is initialized.">
<polygon fill="white" stroke="#666666" points="554.25,-58 426.5,-58 426.5,-38 554.25,-38 554.25,-58"/>
<text xml:space="preserve" text-anchor="middle" x="490.38" y="-44.5" font-family="Helvetica,sans-Serif" font-size="10.00">DIODEVICE::IsInitialized</text>
</a>
</g>
</g>
<!-- Node1&#45;&gt;Node2 -->
<g id="edge1_Node000001_Node000002" class="edge">
<title>Node1&#45;&gt;Node2</title>
<g id="a_edge1_Node000001_Node000002"><a xlink:title=" ">
<path fill="none" stroke="#63b8ff" d="M175.78,-33.12C247.11,-36.51 347.05,-41.25 414.8,-44.46"/>
<polygon fill="#63b8ff" stroke="#63b8ff" points="414.55,-47.95 424.71,-44.93 414.88,-40.96 414.55,-47.95"/>
</a>
</g>
</g>
<!-- Node3 -->
<g id="Node000003" class="node">
<title>Node3</title>
<g id="a_Node000003"><a xlink:href="group___d_a_t_a_i_o.html#gadf72efac92017c649a5c471004a008f1" target="_top" xlink:title="Write register.">
<polygon fill="white" stroke="#666666" points="390.5,-20 211.75,-20 211.75,0 390.5,0 390.5,-20"/>
<text xml:space="preserve" text-anchor="middle" x="301.12" y="-6.5" font-family="Helvetica,sans-Serif" font-size="10.00">DIOI2CLSM303DLHC::WriteRegister</text>
</a>
</g>
</g>
<!-- Node1&#45;&gt;Node3 -->
<g id="edge2_Node000001_Node000003" class="edge">
<title>Node1&#45;&gt;Node3</title>
<g id="a_edge2_Node000001_Node000003"><a xlink:title=" ">
<path fill="none" stroke="#63b8ff" d="M176.02,-21.16C183.97,-20.45 192.08,-19.72 200.13,-18.99"/>
<polygon fill="#63b8ff" stroke="#63b8ff" points="200.32,-22.49 209.97,-18.11 199.69,-15.52 200.32,-22.49"/>
</a>
</g>
</g>
<!-- Node3&#45;&gt;Node2 -->
<g id="edge7_Node000003_Node000002" class="edge">
<title>Node3&#45;&gt;Node2</title>
<g id="a_edge7_Node000003_Node000002"><a xlink:title=" ">
<path fill="none" stroke="#63b8ff" d="M353.79,-20.48C376.4,-25.07 403.14,-30.5 426.86,-35.31"/>
<polygon fill="#63b8ff" stroke="#63b8ff" points="425.9,-38.69 436.4,-37.25 427.29,-31.83 425.9,-38.69"/>
</a>
</g>
</g>
<!-- Node4 -->
<g id="Node000004" class="node">
<title>Node4</title>
<g id="a_Node000004"><a xlink:href="group___x_u_t_i_l_s.html#ga03212e4f31a9d07995ac4f72db1dd0cf" target="_top" xlink:title="Add.">
<polygon fill="white" stroke="#666666" points="533.62,-20 447.12,-20 447.12,0 533.62,0 533.62,-20"/>
<text xml:space="preserve" text-anchor="middle" x="490.38" y="-6.5" font-family="Helvetica,sans-Serif" font-size="10.00">XBUFFER::Add</text>
</a>
</g>
</g>
<!-- Node3&#45;&gt;Node4 -->
<g id="edge3_Node000003_Node000004" class="edge">
<title>Node3&#45;&gt;Node4</title>
<g id="a_edge3_Node000003_Node000004"><a xlink:title=" ">
<path fill="none" stroke="#63b8ff" d="M390.81,-10C406.03,-10 421.42,-10 435.36,-10"/>
<polygon fill="#63b8ff" stroke="#63b8ff" points="435.19,-13.5 445.19,-10 435.19,-6.5 435.19,-13.5"/>
</a>
</g>
</g>
<!-- Node5 -->
<g id="Node000005" class="node">
<title>Node5</title>
<g id="a_Node000005"><a xlink:href="group___x_u_t_i_l_s.html#gacf69e379f1d0bf812ae9c1157eac172c" target="_top" xlink:title="Resize.">
<polygon fill="white" stroke="#666666" points="690.25,-39 590.25,-39 590.25,-19 690.25,-19 690.25,-39"/>
<text xml:space="preserve" text-anchor="middle" x="640.25" y="-25.5" font-family="Helvetica,sans-Serif" font-size="10.00">XBUFFER::Resize</text>
</a>
</g>
</g>
<!-- Node4&#45;&gt;Node5 -->
<g id="edge4_Node000004_Node000005" class="edge">
<title>Node4&#45;&gt;Node5</title>
<g id="a_edge4_Node000004_Node000005"><a xlink:title=" ">
<path fill="none" stroke="#63b8ff" d="M533.75,-15.44C547.69,-17.24 563.48,-19.26 578.51,-21.2"/>
<polygon fill="#63b8ff" stroke="#63b8ff" points="577.95,-24.65 588.32,-22.46 578.84,-17.71 577.95,-24.65"/>
</a>
</g>
</g>
<!-- Node6 -->
<g id="Node000006" class="node">
<title>Node6</title>
<g id="a_Node000006"><a xlink:href="group___x_u_t_i_l_s.html#ga7f7fefde5619da5cfb66dc34f4cd4b08" target="_top" xlink:title="Set blocked.">
<polygon fill="white" stroke="#666666" points="845.75,-20 726.25,-20 726.25,0 845.75,0 845.75,-20"/>
<text xml:space="preserve" text-anchor="middle" x="786" y="-6.5" font-family="Helvetica,sans-Serif" font-size="10.00">XBUFFER::SetBlocked</text>
</a>
</g>
</g>
<!-- Node4&#45;&gt;Node6 -->
<g id="edge6_Node000004_Node000006" class="edge">
<title>Node4&#45;&gt;Node6</title>
<g id="a_edge6_Node000004_Node000006"><a xlink:title=" ">
<path fill="none" stroke="#63b8ff" d="M534.07,-10C581.39,-10 658.44,-10 714.69,-10"/>
<polygon fill="#63b8ff" stroke="#63b8ff" points="714.49,-13.5 724.49,-10 714.49,-6.5 714.49,-13.5"/>
</a>
</g>
</g>
<!-- Node5&#45;&gt;Node6 -->
<g id="edge5_Node000005_Node000006" class="edge">
<title>Node5&#45;&gt;Node6</title>
<g id="a_edge5_Node000005_Node000006"><a xlink:title=" ">
<path fill="none" stroke="#63b8ff" d="M690.72,-22.46C698.39,-21.45 706.44,-20.38 714.47,-19.32"/>
<polygon fill="#63b8ff" stroke="#63b8ff" points="714.81,-22.81 724.27,-18.03 713.9,-15.87 714.81,-22.81"/>
</a>
</g>
</g>
</g>
</svg>
