<?xml version="1.0" encoding="UTF-8" standalone="no"?>
<!DOCTYPE svg PUBLIC "-//W3C//DTD SVG 1.1//EN"
 "http://www.w3.org/Graphics/SVG/1.1/DTD/svg11.dtd">
<!-- Generated by graphviz version 14.1.0 (20251206.1807)
 -->
<!-- Title: SNDOPENALFACTORY::End Pages: 1 -->
<!--zoomable 116 -->

<svg id="main" version="1.1" xmlns="http://www.w3.org/2000/svg" xmlns:xlink="http://www.w3.org/1999/xlink" xml:space="preserve" onload="init(evt)">

<style type="text/css"><![CDATA[
.node, .edge {opacity: 0.7;}
.node.selected, .edge.selected {opacity: 1;}
.edge:hover path { stroke: red; }
.edge:hover polygon { stroke: red; fill: red; }
]]></style>

<defs>
  <circle id="rim" cx="0" cy="0" r="7"/>
  <circle id="rim2" cx="0" cy="0" r="3.5"/>
  <g id="zoomPlus">
    <use xlink:href="#rim" fill="#404040"><set attributeName="fill" to="#808080" begin="zoomplus.mouseover" end="zoomplus.mouseout"/></use>
    <path d="M-4,0h8M0,-4v8" fill="none" stroke="white" stroke-width="1.5" pointer-events="none"/>
  </g>
  <g id="zoomMin">
    <use xlink:href="#rim" fill="#404040"><set attributeName="fill" to="#808080" begin="zoomminus.mouseover" end="zoomminus.mouseout"/></use>
    <path d="M-4,0h8" fill="none" stroke="white" stroke-width="1.5" pointer-events="none"/>
  </g>
  <g id="arrowUp" transform="translate(30 24)">
    <use xlink:href="#rim"/>
    <path pointer-events="none" fill="none" stroke="white" stroke-width="1.5" d="M0,-3.0v7 M-2.5,-0.5L0,-3.0L2.5,-0.5"/>
  </g>
  <g id="arrowRight" transform="rotate(90) translate(36 -43)">
    <use xlink:href="#rim"/>
    <path pointer-events="none" fill="none" stroke="white" stroke-width="1.5" d="M0,-3.0v7 M-2.5,-0.5L0,-3.0L2.5,-0.5"/>
  </g>
  <g id="arrowDown" transform="rotate(180) translate(-30 -48)">
    <use xlink:href="#rim"/>
    <path pointer-events="none" fill="none" stroke="white" stroke-width="1.5" d="M0,-3.0v7 M-2.5,-0.5L0,-3.0L2.5,-0.5"/>
  </g>
  <g id="arrowLeft" transform="rotate(270) translate(-36 17)">
    <use xlink:href="#rim"/>
    <path pointer-events="none" fill="none" stroke="white" stroke-width="1.5" d="M0,-3.0v7 M-2.5,-0.5L0,-3.0L2.5,-0.5"/>
  </g>
  <g id="resetDef">
    <use xlink:href="#rim2" fill="#404040"><set attributeName="fill" to="#808080" begin="reset.mouseover" end="reset.mouseout"/></use>
  </g>
</defs>
<script type="application/ecmascript">
var viewWidth = 518;
var viewHeight = 116;
var sectionId = 'dynsection-17';
</script>
<script type="application/ecmascript" xlink:href="svg.min.js"/>
<svg id="graph" class="graph">
<g id="viewport">
<title>SNDOPENALFACTORY::End</title>
<!-- Node1 -->
<g id="Node000001" class="node">
<title>Node1</title>
<g id="a_Node000001"><a xlink:title="End.">
<polygon fill="#999999" stroke="#666666" points="147.25,-58 0,-58 0,-38 147.25,-38 147.25,-58"/>
<text xml:space="preserve" text-anchor="middle" x="73.62" y="-44.5" font-family="Helvetica,sans-Serif" font-size="10.00">SNDOPENALFACTORY::End</text>
</a>
</g>
</g>
<!-- Node2 -->
<g id="Node000002" class="node">
<title>Node2</title>
<g id="a_Node000002"><a xlink:href="group___s_o_u_n_d.html#gab0c0f8c44563a50626dafde258ee373d" target="_top" xlink:title="Sound stop all.">
<polygon fill="white" stroke="#666666" points="341,-64 183.25,-64 183.25,-32 341,-32 341,-64"/>
<text xml:space="preserve" text-anchor="start" x="191.25" y="-50.5" font-family="Helvetica,sans-Serif" font-size="10.00">SNDOPENALFACTORY::Sound</text>
<text xml:space="preserve" text-anchor="middle" x="262.12" y="-38.5" font-family="Helvetica,sans-Serif" font-size="10.00">_StopAll</text>
</a>
</g>
</g>
<!-- Node1&#45;&gt;Node2 -->
<g id="edge1_Node000001_Node000002" class="edge">
<title>Node1&#45;&gt;Node2</title>
<g id="a_edge1_Node000001_Node000002"><a xlink:title=" ">
<path fill="none" stroke="#63b8ff" d="M147.53,-48C155.45,-48 163.57,-48 171.65,-48"/>
<polygon fill="#63b8ff" stroke="#63b8ff" points="171.52,-51.5 181.52,-48 171.52,-44.5 171.52,-51.5"/>
</a>
</g>
</g>
<!-- Node3 -->
<g id="Node000003" class="node">
<title>Node3</title>
<g id="a_Node000003"><a xlink:href="group___s_o_u_n_d.html#gac1b267678e6287eb9cc6f4156d0345bd" target="_top" xlink:title="Get item.">
<polygon fill="white" stroke="#666666" points="510,-108 377,-108 377,-76 510,-76 510,-108"/>
<text xml:space="preserve" text-anchor="start" x="385" y="-94.5" font-family="Helvetica,sans-Serif" font-size="10.00">SNDOPENALPLAYITEM::</text>
<text xml:space="preserve" text-anchor="middle" x="443.5" y="-82.5" font-family="Helvetica,sans-Serif" font-size="10.00">GetItem</text>
</a>
</g>
</g>
<!-- Node2&#45;&gt;Node3 -->
<g id="edge2_Node000002_Node000003" class="edge">
<title>Node2&#45;&gt;Node3</title>
<g id="a_edge2_Node000002_Node000003"><a xlink:title=" ">
<path fill="none" stroke="#63b8ff" d="M330.17,-64.45C341.71,-67.28 353.78,-70.24 365.56,-73.13"/>
<polygon fill="#63b8ff" stroke="#63b8ff" points="364.71,-76.52 375.26,-75.51 366.38,-69.72 364.71,-76.52"/>
</a>
</g>
</g>
<!-- Node4 -->
<g id="Node000004" class="node">
<title>Node4</title>
<g id="a_Node000004"><a xlink:href="group___s_o_u_n_d.html#gad5642d5693499dd9e0bff802f1208ef5" target="_top" xlink:title="Get status.">
<polygon fill="white" stroke="#666666" points="499.5,-58 387.5,-58 387.5,-38 499.5,-38 499.5,-58"/>
<text xml:space="preserve" text-anchor="middle" x="443.5" y="-44.5" font-family="Helvetica,sans-Serif" font-size="10.00">SNDITEM::GetStatus</text>
</a>
</g>
</g>
<!-- Node2&#45;&gt;Node4 -->
<g id="edge3_Node000002_Node000004" class="edge">
<title>Node2&#45;&gt;Node4</title>
<g id="a_edge3_Node000002_Node000004"><a xlink:title=" ">
<path fill="none" stroke="#63b8ff" d="M341.28,-48C352.77,-48 364.52,-48 375.75,-48"/>
<polygon fill="#63b8ff" stroke="#63b8ff" points="375.73,-51.5 385.73,-48 375.73,-44.5 375.73,-51.5"/>
</a>
</g>
</g>
<!-- Node5 -->
<g id="Node000005" class="node">
<title>Node5</title>
<g id="a_Node000005"><a xlink:href="group___x_u_t_i_l_s.html#ga9cfb136fd0f76df9b29a7d7bbeadd30a" target="_top" xlink:title="Set event.">
<polygon fill="white" stroke="#666666" points="508.12,-20 378.88,-20 378.88,0 508.12,0 508.12,-20"/>
<text xml:space="preserve" text-anchor="middle" x="443.5" y="-6.5" font-family="Helvetica,sans-Serif" font-size="10.00">XFSMACHINE::SetEvent</text>
</a>
</g>
</g>
<!-- Node2&#45;&gt;Node5 -->
<g id="edge4_Node000002_Node000005" class="edge">
<title>Node2&#45;&gt;Node5</title>
<g id="a_edge4_Node000002_Node000005"><a xlink:title=" ">
<path fill="none" stroke="#63b8ff" d="M340.76,-31.55C354.59,-28.62 368.81,-25.61 382.08,-22.8"/>
<polygon fill="#63b8ff" stroke="#63b8ff" points="382.42,-26.3 391.48,-20.81 380.97,-19.46 382.42,-26.3"/>
</a>
</g>
</g>
</g>
</svg>

<g id="navigator" transform="translate(0 0)" fill="#404254">
  <rect fill="#f2f5e9" fill-opacity="0.5" stroke="#606060" stroke-width=".5" x="0" y="0" width="60" height="60"/>
  <use id="zoomplus" xlink:href="#zoomPlus" x="17" y="9" onmousedown="handleZoom(evt,'in')"/>
  <use id="zoomminus" xlink:href="#zoomMin" x="42" y="9" onmousedown="handleZoom(evt,'out')"/>
  <use id="reset" xlink:href="#resetDef" x="30" y="36" onmousedown="handleReset()"/>
   <use id="arrowup" xlink:href="#arrowUp" x="0" y="0" onmousedown="handlePan(0,-1)"/>
  <use id="arrowright" xlink:href="#arrowRight" x="0" y="0" onmousedown="handlePan(1,0)"/>
  <use id="arrowdown" xlink:href="#arrowDown" x="0" y="0" onmousedown="handlePan(0,1)"/>
  <use id="arrowleft" xlink:href="#arrowLeft" x="0" y="0" onmousedown="handlePan(-1,0)"/>
</g>
<svg viewBox="0 0 15 15" width="100%" height="30px" preserveAspectRatio="xMaxYMin meet">
 <g id="arrow_out" transform="scale(0.3 0.3)">
  <a xlink:href="group___s_o_u_n_d_gacb05db0d5cde5b1c6a6816cc6fc47e92_cgraph_org.svg" target="_base">
   <rect id="button" ry="5" rx="5" y="6" x="6" height="38" width="38"
        fill="#f2f5e9" fill-opacity="0.5" stroke="#606060" stroke-width="1.0"/>
   <path id="arrow"
     d="M 11.500037,31.436501 C 11.940474,20.09759 22.043105,11.32322 32.158766,21.979434 L 37.068811,17.246167 C 37.068811,17.246167 37.088388,32 37.088388,32 L 22.160133,31.978069 C 22.160133,31.978069 26.997745,27.140456 26.997745,27.140456 C 18.528582,18.264221 13.291696,25.230495 11.500037,31.436501 z"
     style="fill:#404040;"/>
  </a>
 </g>
</svg>

<style type='text/css'>
<![CDATA[
[data-mouse-over-selected='false'] { opacity: 0.7; }
[data-mouse-over-selected='true']  { opacity: 1.0; }
]]>
</style>
<script type="application/ecmascript"><![CDATA[
document.addEventListener('DOMContentLoaded', (event) => {
  highlightEdges();
  highlightAdjacentNodes();
});
]]></script>
</svg>
