<?xml version="1.0" encoding="UTF-8" standalone="no"?>
<!DOCTYPE svg PUBLIC "-//W3C//DTD SVG 1.1//EN"
 "http://www.w3.org/Graphics/SVG/1.1/DTD/svg11.dtd">
<!-- Generated by graphviz version 14.1.0 (20251206.1807)
 -->
<!-- Title: XMPINTEGER::Division Pages: 1 -->
<!--zoomable 1372 -->

<svg id="main" version="1.1" xmlns="http://www.w3.org/2000/svg" xmlns:xlink="http://www.w3.org/1999/xlink" xml:space="preserve" onload="init(evt)">

<style type="text/css"><![CDATA[
.node, .edge {opacity: 0.7;}
.node.selected, .edge.selected {opacity: 1;}
.edge:hover path { stroke: red; }
.edge:hover polygon { stroke: red; fill: red; }
]]></style>

<defs>
  <circle id="rim" cx="0" cy="0" r="7"/>
  <circle id="rim2" cx="0" cy="0" r="3.5"/>
  <g id="zoomPlus">
    <use xlink:href="#rim" fill="#404040"><set attributeName="fill" to="#808080" begin="zoomplus.mouseover" end="zoomplus.mouseout"/></use>
    <path d="M-4,0h8M0,-4v8" fill="none" stroke="white" stroke-width="1.5" pointer-events="none"/>
  </g>
  <g id="zoomMin">
    <use xlink:href="#rim" fill="#404040"><set attributeName="fill" to="#808080" begin="zoomminus.mouseover" end="zoomminus.mouseout"/></use>
    <path d="M-4,0h8" fill="none" stroke="white" stroke-width="1.5" pointer-events="none"/>
  </g>
  <g id="arrowUp" transform="translate(30 24)">
    <use xlink:href="#rim"/>
    <path pointer-events="none" fill="none" stroke="white" stroke-width="1.5" d="M0,-3.0v7 M-2.5,-0.5L0,-3.0L2.5,-0.5"/>
  </g>
  <g id="arrowRight" transform="rotate(90) translate(36 -43)">
    <use xlink:href="#rim"/>
    <path pointer-events="none" fill="none" stroke="white" stroke-width="1.5" d="M0,-3.0v7 M-2.5,-0.5L0,-3.0L2.5,-0.5"/>
  </g>
  <g id="arrowDown" transform="rotate(180) translate(-30 -48)">
    <use xlink:href="#rim"/>
    <path pointer-events="none" fill="none" stroke="white" stroke-width="1.5" d="M0,-3.0v7 M-2.5,-0.5L0,-3.0L2.5,-0.5"/>
  </g>
  <g id="arrowLeft" transform="rotate(270) translate(-36 17)">
    <use xlink:href="#rim"/>
    <path pointer-events="none" fill="none" stroke="white" stroke-width="1.5" d="M0,-3.0v7 M-2.5,-0.5L0,-3.0L2.5,-0.5"/>
  </g>
  <g id="resetDef">
    <use xlink:href="#rim2" fill="#404040"><set attributeName="fill" to="#808080" begin="reset.mouseover" end="reset.mouseout"/></use>
  </g>
</defs>
<script type="application/ecmascript">
var viewWidth = 1111;
var viewHeight = 1372;
var sectionId = 'dynsection-526';
</script>
<script type="application/ecmascript" xlink:href="svg.min.js"/>
<svg id="graph" class="graph">
<g id="viewport">
<title>XMPINTEGER::Division</title>
<!-- Node1 -->
<g id="Node000001" class="node">
<title>Node1</title>
<g id="a_Node000001"><a xlink:title="Division.">
<polygon fill="#999999" stroke="#666666" points="124,-955.21 0,-955.21 0,-935.21 124,-935.21 124,-955.21"/>
<text xml:space="preserve" text-anchor="middle" x="62" y="-941.71" font-family="Helvetica,sans-Serif" font-size="10.00">XMPINTEGER::Division</text>
</a>
</g>
</g>
<!-- Node2 -->
<g id="Node000002" class="node">
<title>Node2</title>
<g id="a_Node000002"><a xlink:href="group___x_u_t_i_l_s.html#gab1b467331ec32836bd3cc0b54bc025ac" target="_top" xlink:title="Addition signed.">
<polygon fill="white" stroke="#666666" points="321.12,-613.21 167.12,-613.21 167.12,-593.21 321.12,-593.21 321.12,-613.21"/>
<text xml:space="preserve" text-anchor="middle" x="244.12" y="-599.71" font-family="Helvetica,sans-Serif" font-size="10.00">XMPINTEGER::AdditionSigned</text>
</a>
</g>
</g>
<!-- Node1&#45;&gt;Node2 -->
<g id="edge1_Node000001_Node000002" class="edge">
<title>Node1&#45;&gt;Node2</title>
<g id="a_edge1_Node000001_Node000002"><a xlink:title=" ">
<path fill="none" stroke="#63b8ff" d="M68.39,-934.97C93.41,-887.48 198.39,-688.14 232.42,-623.52"/>
<polygon fill="#63b8ff" stroke="#63b8ff" points="235.49,-625.22 237.05,-614.74 229.29,-621.96 235.49,-625.22"/>
</a>
</g>
</g>
<!-- Node4 -->
<g id="Node000004" class="node">
<title>Node4</title>
<g id="a_Node000004"><a xlink:href="group___x_u_t_i_l_s.html#ga1b41ac6d5258d4e3581ffa58f25da132" target="_top" xlink:title="Copy from.">
<polygon fill="white" stroke="#666666" points="715,-803.21 580.5,-803.21 580.5,-783.21 715,-783.21 715,-803.21"/>
<text xml:space="preserve" text-anchor="middle" x="647.75" y="-789.71" font-family="Helvetica,sans-Serif" font-size="10.00">XMPINTEGER::CopyFrom</text>
</a>
</g>
</g>
<!-- Node1&#45;&gt;Node4 -->
<g id="edge39_Node000001_Node000004" class="edge">
<title>Node1&#45;&gt;Node4</title>
<g id="a_edge39_Node000001_Node000004"><a xlink:title=" ">
<path fill="none" stroke="#63b8ff" d="M124.1,-941.6C240.8,-934.4 487,-917.63 522.75,-902.21 569.19,-882.18 610.52,-837.97 631.73,-812.44"/>
<polygon fill="#63b8ff" stroke="#63b8ff" points="634.31,-814.81 637.88,-804.83 628.87,-810.4 634.31,-814.81"/>
</a>
</g>
</g>
<!-- Node5 -->
<g id="Node000005" class="node">
<title>Node5</title>
<g id="a_Node000005"><a xlink:href="group___x_u_t_i_l_s.html#gae6dc37bf0f0cdb413ae2e42aafc4c0b6" target="_top" xlink:title="End.">
<polygon fill="white" stroke="#666666" points="903.5,-1240.21 797.5,-1240.21 797.5,-1220.21 903.5,-1220.21 903.5,-1240.21"/>
<text xml:space="preserve" text-anchor="middle" x="850.5" y="-1226.71" font-family="Helvetica,sans-Serif" font-size="10.00">XMPINTEGER::End</text>
</a>
</g>
</g>
<!-- Node1&#45;&gt;Node5 -->
<g id="edge40_Node000001_Node000005" class="edge">
<title>Node1&#45;&gt;Node5</title>
<g id="a_edge40_Node000001_Node000005"><a xlink:title=" ">
<path fill="none" stroke="#63b8ff" d="M64.47,-955.48C72.06,-1007.1 108.49,-1237.58 160,-1284.21 353.02,-1458.92 713.7,-1298.94 819.57,-1245.89"/>
<polygon fill="#63b8ff" stroke="#63b8ff" points="821.15,-1249.01 828.48,-1241.36 817.98,-1242.77 821.15,-1249.01"/>
</a>
</g>
</g>
<!-- Node6 -->
<g id="Node000006" class="node">
<title>Node6</title>
<g id="a_Node000006"><a xlink:href="group___x_u_t_i_l_s.html#gac3f1fbbbd1a86523e1244fbc4e89cb2b" target="_top" xlink:title="Get limbs.">
<polygon fill="white" stroke="#666666" points="915.88,-575.21 785.12,-575.21 785.12,-555.21 915.88,-555.21 915.88,-575.21"/>
<text xml:space="preserve" text-anchor="middle" x="850.5" y="-561.71" font-family="Helvetica,sans-Serif" font-size="10.00">XMPINTEGER::GetLimbs</text>
</a>
</g>
</g>
<!-- Node1&#45;&gt;Node6 -->
<g id="edge41_Node000001_Node000006" class="edge">
<title>Node1&#45;&gt;Node6</title>
<g id="a_edge41_Node000001_Node000006"><a xlink:title=" ">
<path fill="none" stroke="#63b8ff" d="M63.45,-934.89C66.45,-870.41 85.97,-523.32 160,-455.21 348.99,-281.34 506.06,-307.37 736.75,-420.21 790.05,-446.28 825.43,-511.05 840.79,-544.49"/>
<polygon fill="#63b8ff" stroke="#63b8ff" points="837.53,-545.78 844.77,-553.52 843.93,-542.95 837.53,-545.78"/>
</a>
</g>
</g>
<!-- Node7 -->
<g id="Node000007" class="node">
<title>Node7</title>
<g id="a_Node000007"><a xlink:href="group___x_u_t_i_l_s.html#ga264334fb6432f574a6383134ecd578ed" target="_top" xlink:title="Get N limbs.">
<polygon fill="white" stroke="#666666" points="1102.5,-455.21 964.25,-455.21 964.25,-435.21 1102.5,-435.21 1102.5,-455.21"/>
<text xml:space="preserve" text-anchor="middle" x="1033.38" y="-441.71" font-family="Helvetica,sans-Serif" font-size="10.00">XMPINTEGER::GetNLimbs</text>
</a>
</g>
</g>
<!-- Node1&#45;&gt;Node7 -->
<g id="edge43_Node000001_Node000007" class="edge">
<title>Node1&#45;&gt;Node7</title>
<g id="a_edge43_Node000001_Node000007"><a xlink:title=" ">
<path fill="none" stroke="#63b8ff" d="M63.35,-934.74C66.61,-838.77 93.41,-113.97 160,-48.21 249.74,40.42 316.37,-21.21 442.5,-21.21 442.5,-21.21 442.5,-21.21 648.75,-21.21 782.74,-21.21 839.17,-34.12 928.25,-134.21 1005.88,-221.43 1025.95,-368.46 1030.87,-423.53"/>
<polygon fill="#63b8ff" stroke="#63b8ff" points="1027.37,-423.72 1031.66,-433.41 1034.35,-423.16 1027.37,-423.72"/>
</a>
</g>
</g>
<!-- Node8 -->
<g id="Node000008" class="node">
<title>Node8</title>
<g id="a_Node000008"><a xlink:href="group___x_u_t_i_l_s.html#ga4b378be515514fe97102c5dd63ffaec9" target="_top" xlink:title="Get sign.">
<polygon fill="white" stroke="#666666" points="912.5,-879.21 788.5,-879.21 788.5,-859.21 912.5,-859.21 912.5,-879.21"/>
<text xml:space="preserve" text-anchor="middle" x="850.5" y="-865.71" font-family="Helvetica,sans-Serif" font-size="10.00">XMPINTEGER::GetSign</text>
</a>
</g>
</g>
<!-- Node1&#45;&gt;Node8 -->
<g id="edge44_Node000001_Node000008" class="edge">
<title>Node1&#45;&gt;Node8</title>
<g id="a_edge44_Node000001_Node000008"><a xlink:title=" ">
<path fill="none" stroke="#63b8ff" d="M76.22,-955.56C94.09,-968.93 127.47,-991.71 160,-1002.21 404.13,-1080.95 508.16,-1140.6 736.75,-1024.21 792.7,-995.72 827.42,-925.03 841.82,-889.82"/>
<polygon fill="#63b8ff" stroke="#63b8ff" points="844.98,-891.35 845.37,-880.76 838.46,-888.79 844.98,-891.35"/>
</a>
</g>
</g>
<!-- Node9 -->
<g id="Node000009" class="node">
<title>Node9</title>
<g id="a_Node000009"><a xlink:href="group___x_u_t_i_l_s.html#ga81c3c1f07c09d4d431c2ea93a3ad1b14" target="_top" xlink:title="Grow.">
<polygon fill="white" stroke="#666666" points="906.5,-1145.21 794.5,-1145.21 794.5,-1125.21 906.5,-1125.21 906.5,-1145.21"/>
<text xml:space="preserve" text-anchor="middle" x="850.5" y="-1131.71" font-family="Helvetica,sans-Serif" font-size="10.00">XMPINTEGER::Grow</text>
</a>
</g>
</g>
<!-- Node1&#45;&gt;Node9 -->
<g id="edge45_Node000001_Node000009" class="edge">
<title>Node1&#45;&gt;Node9</title>
<g id="a_edge45_Node000001_Node000009"><a xlink:title=" ">
<path fill="none" stroke="#63b8ff" d="M62.73,-955.61C62.24,-998.37 66.7,-1161.67 160,-1230.21 366.62,-1382 496.58,-1308.92 736.75,-1219.21 774.8,-1205 811.01,-1173.78 831.71,-1153.66"/>
<polygon fill="#63b8ff" stroke="#63b8ff" points="834.16,-1156.16 838.76,-1146.62 829.21,-1151.21 834.16,-1156.16"/>
</a>
</g>
</g>
<!-- Node10 -->
<g id="Node000010" class="node">
<title>Node10</title>
<g id="a_Node000010"><a xlink:href="group___x_u_t_i_l_s.html#ga43df7b0b2ba3f4d16550db90700eec20" target="_top" xlink:title="Set sign.">
<polygon fill="white" stroke="#666666" points="912.12,-727.21 788.88,-727.21 788.88,-707.21 912.12,-707.21 912.12,-727.21"/>
<text xml:space="preserve" text-anchor="middle" x="850.5" y="-713.71" font-family="Helvetica,sans-Serif" font-size="10.00">XMPINTEGER::SetSign</text>
</a>
</g>
</g>
<!-- Node1&#45;&gt;Node10 -->
<g id="edge67_Node000001_Node000010" class="edge">
<title>Node1&#45;&gt;Node10</title>
<g id="a_edge67_Node000001_Node000010"><a xlink:title=" ">
<path fill="none" stroke="#63b8ff" d="M89.2,-934.72C162.39,-905.75 375.67,-823.5 558.75,-774.21 632.36,-754.39 718.18,-738.42 777.41,-728.48"/>
<polygon fill="#63b8ff" stroke="#63b8ff" points="777.73,-731.97 787.03,-726.88 776.59,-725.06 777.73,-731.97"/>
</a>
</g>
</g>
<!-- Node11 -->
<g id="Node000011" class="node">
<title>Node11</title>
<g id="a_Node000011"><a xlink:href="group___x_u_t_i_l_s.html#gaa0ac2b363bd3290e6cf6b2fd6f9fb871" target="_top" xlink:title="Constructor of class.">
<polygon fill="white" stroke="#666666" points="928.25,-297.21 772.75,-297.21 772.75,-277.21 928.25,-277.21 928.25,-297.21"/>
<text xml:space="preserve" text-anchor="middle" x="850.5" y="-283.71" font-family="Helvetica,sans-Serif" font-size="10.00">XMPINTEGER::XMPINTEGER</text>
</a>
</g>
</g>
<!-- Node1&#45;&gt;Node11 -->
<g id="edge75_Node000001_Node000011" class="edge">
<title>Node1&#45;&gt;Node11</title>
<g id="a_edge75_Node000001_Node000011"><a xlink:title=" ">
<path fill="none" stroke="#63b8ff" d="M63.41,-934.88C67.18,-843.14 96.89,-170.12 160,-110.21 253.01,-21.92 625.74,-27 736.75,-91.21 803.1,-129.59 833.83,-223.45 844.68,-265.83"/>
<polygon fill="#63b8ff" stroke="#63b8ff" points="841.27,-266.62 847.02,-275.52 848.07,-264.97 841.27,-266.62"/>
</a>
</g>
</g>
<!-- Node12 -->
<g id="Node000012" class="node">
<title>Node12</title>
<g id="a_Node000012"><a xlink:href="group___x_u_t_i_l_s.html#gac2cfd05e7f51f0863995409222fe35cf" target="_top" xlink:title="Compare ABS values.">
<polygon fill="white" stroke="#666666" points="736.75,-145.21 558.75,-145.21 558.75,-125.21 736.75,-125.21 736.75,-145.21"/>
<text xml:space="preserve" text-anchor="middle" x="647.75" y="-131.71" font-family="Helvetica,sans-Serif" font-size="10.00">XMPINTEGER::CompareABSValues</text>
</a>
</g>
</g>
<!-- Node1&#45;&gt;Node12 -->
<g id="edge33_Node000001_Node000012" class="edge">
<title>Node1&#45;&gt;Node12</title>
<g id="a_edge33_Node000001_Node000012"><a xlink:title=" ">
<path fill="none" stroke="#63b8ff" d="M62.79,-934.84C61.32,-853.03 55.69,-311.65 160,-197.21 270.51,-75.96 490.21,-102.05 592.28,-122.41"/>
<polygon fill="#63b8ff" stroke="#63b8ff" points="591.56,-125.84 602.06,-124.43 592.97,-118.98 591.56,-125.84"/>
</a>
</g>
</g>
<!-- Node14 -->
<g id="Node000014" class="node">
<title>Node14</title>
<g id="a_Node000014"><a xlink:href="group___x_u_t_i_l_s.html#ga9f05fbe61890e093f9ba67a1b47ea57f" target="_top" xlink:title="Ini.">
<polygon fill="white" stroke="#666666" points="697.38,-955.21 598.12,-955.21 598.12,-935.21 697.38,-935.21 697.38,-955.21"/>
<text xml:space="preserve" text-anchor="middle" x="647.75" y="-941.71" font-family="Helvetica,sans-Serif" font-size="10.00">XMPINTEGER::Ini</text>
</a>
</g>
</g>
<!-- Node1&#45;&gt;Node14 -->
<g id="edge46_Node000001_Node000014" class="edge">
<title>Node1&#45;&gt;Node14</title>
<g id="a_edge46_Node000001_Node000014"><a xlink:title=" ">
<path fill="none" stroke="#63b8ff" d="M124.37,-945.21C236.89,-945.21 474.9,-945.21 586.55,-945.21"/>
<polygon fill="#63b8ff" stroke="#63b8ff" points="586.4,-948.71 596.4,-945.21 586.4,-941.71 586.4,-948.71"/>
</a>
</g>
</g>
<!-- Node15 -->
<g id="Node000015" class="node">
<title>Node15</title>
<g id="a_Node000015"><a xlink:href="group___x_u_t_i_l_s.html#gae13a55ba49009e67c6ed200e20e6038d" target="_top" xlink:title="Compare signed values.">
<polygon fill="white" stroke="#666666" points="727,-461.21 568.5,-461.21 568.5,-429.21 727,-429.21 727,-461.21"/>
<text xml:space="preserve" text-anchor="start" x="576.5" y="-447.71" font-family="Helvetica,sans-Serif" font-size="10.00">XMPINTEGER::CompareSigned</text>
<text xml:space="preserve" text-anchor="middle" x="647.75" y="-435.71" font-family="Helvetica,sans-Serif" font-size="10.00">Values</text>
</a>
</g>
</g>
<!-- Node1&#45;&gt;Node15 -->
<g id="edge34_Node000001_Node000015" class="edge">
<title>Node1&#45;&gt;Node15</title>
<g id="a_edge34_Node000001_Node000015"><a xlink:title=" ">
<path fill="none" stroke="#63b8ff" d="M64.05,-934.72C70,-877.45 101.31,-602.94 160,-546.21 266.23,-443.52 448.05,-433 556.86,-437.31"/>
<polygon fill="#63b8ff" stroke="#63b8ff" points="556.47,-440.79 566.62,-437.75 556.79,-433.8 556.47,-440.79"/>
</a>
</g>
</g>
<!-- Node16 -->
<g id="Node000016" class="node">
<title>Node16</title>
<g id="a_Node000016"><a xlink:href="group___x_u_t_i_l_s.html#ga298be227c8effa636167f68e35ce7b6c" target="_top" xlink:title="Get MSB.">
<polygon fill="white" stroke="#666666" points="506.62,-1183.21 380.38,-1183.21 380.38,-1163.21 506.62,-1163.21 506.62,-1183.21"/>
<text xml:space="preserve" text-anchor="middle" x="443.5" y="-1169.71" font-family="Helvetica,sans-Serif" font-size="10.00">XMPINTEGER::GetMSB</text>
</a>
</g>
</g>
<!-- Node1&#45;&gt;Node16 -->
<g id="edge42_Node000001_Node000016" class="edge">
<title>Node1&#45;&gt;Node16</title>
<g id="a_edge42_Node000001_Node000016"><a xlink:title=" ">
<path fill="none" stroke="#63b8ff" d="M64.15,-955.34C68.69,-990.13 88.77,-1105.3 160,-1154.21 226,-1199.52 322.36,-1194.87 383.74,-1185.49"/>
<polygon fill="#63b8ff" stroke="#63b8ff" points="383.97,-1189 393.28,-1183.93 382.85,-1182.09 383.97,-1189"/>
</a>
</g>
</g>
<!-- Node17 -->
<g id="Node000017" class="node">
<title>Node17</title>
<g id="a_Node000017"><a xlink:href="group___x_u_t_i_l_s.html#ga9f197e450fc285f958c96c7e6041792b" target="_top" xlink:title="Left set.">
<polygon fill="white" stroke="#666666" points="707.88,-1183.21 587.62,-1183.21 587.62,-1163.21 707.88,-1163.21 707.88,-1183.21"/>
<text xml:space="preserve" text-anchor="middle" x="647.75" y="-1169.71" font-family="Helvetica,sans-Serif" font-size="10.00">XMPINTEGER::LeftSet</text>
</a>
</g>
</g>
<!-- Node1&#45;&gt;Node17 -->
<g id="edge47_Node000001_Node000017" class="edge">
<title>Node1&#45;&gt;Node17</title>
<g id="a_edge47_Node000001_Node000017"><a xlink:title=" ">
<path fill="none" stroke="#63b8ff" d="M67.54,-955.6C79.01,-980.5 111.7,-1043.7 160,-1073.21 229.85,-1115.89 443.02,-1118.66 522.75,-1137.21 549.89,-1143.52 579.91,-1152.19 603.62,-1159.44"/>
<polygon fill="#63b8ff" stroke="#63b8ff" points="602.33,-1162.71 612.92,-1162.32 604.4,-1156.02 602.33,-1162.71"/>
</a>
</g>
</g>
<!-- Node18 -->
<g id="Node000018" class="node">
<title>Node18</title>
<g id="a_Node000018"><a xlink:href="group___x_u_t_i_l_s.html#ga855c3e7fdceb5c13684ef3db3bd85e1c" target="_top" xlink:title="Left shift.">
<polygon fill="white" stroke="#666666" points="306.88,-1221.21 181.38,-1221.21 181.38,-1201.21 306.88,-1201.21 306.88,-1221.21"/>
<text xml:space="preserve" text-anchor="middle" x="244.12" y="-1207.71" font-family="Helvetica,sans-Serif" font-size="10.00">XMPINTEGER::LeftShift</text>
</a>
</g>
</g>
<!-- Node1&#45;&gt;Node18 -->
<g id="edge51_Node000001_Node000018" class="edge">
<title>Node1&#45;&gt;Node18</title>
<g id="a_edge51_Node000001_Node000018"><a xlink:title=" ">
<path fill="none" stroke="#63b8ff" d="M63.97,-955.5C68.02,-992.66 86.99,-1121.17 160,-1187.21 163.74,-1190.59 167.92,-1193.49 172.37,-1195.99"/>
<polygon fill="#63b8ff" stroke="#63b8ff" points="170.57,-1199.01 181.1,-1200.18 173.6,-1192.7 170.57,-1199.01"/>
</a>
</g>
</g>
<!-- Node19 -->
<g id="Node000019" class="node">
<title>Node19</title>
<g id="a_Node000019"><a xlink:href="group___x_u_t_i_l_s.html#gab013f91a10b9c09a211d0d0933a6986f" target="_top" xlink:title="Multiplication.">
<polygon fill="white" stroke="#666666" points="516.38,-1012.21 370.62,-1012.21 370.62,-992.21 516.38,-992.21 516.38,-1012.21"/>
<text xml:space="preserve" text-anchor="middle" x="443.5" y="-998.71" font-family="Helvetica,sans-Serif" font-size="10.00">XMPINTEGER::Multiplication</text>
</a>
</g>
</g>
<!-- Node1&#45;&gt;Node19 -->
<g id="edge54_Node000001_Node000019" class="edge">
<title>Node1&#45;&gt;Node19</title>
<g id="a_edge54_Node000001_Node000019"><a xlink:title=" ">
<path fill="none" stroke="#63b8ff" d="M88.06,-955.62C107.37,-963.17 134.93,-972.96 160,-978.21 226.03,-992.03 302.33,-997.93 358.98,-1000.43"/>
<polygon fill="#63b8ff" stroke="#63b8ff" points="358.75,-1003.92 368.89,-1000.84 359.04,-996.93 358.75,-1003.92"/>
</a>
</g>
</g>
<!-- Node20 -->
<g id="Node000020" class="node">
<title>Node20</title>
<g id="a_Node000020"><a xlink:href="group___x_u_t_i_l_s.html#gabdcdb052c0b78ecb5553967c94e1731b" target="_top" xlink:title="Right shift.">
<polygon fill="white" stroke="#666666" points="310.25,-1145.21 178,-1145.21 178,-1125.21 310.25,-1125.21 310.25,-1145.21"/>
<text xml:space="preserve" text-anchor="middle" x="244.12" y="-1131.71" font-family="Helvetica,sans-Serif" font-size="10.00">XMPINTEGER::RightShift</text>
</a>
</g>
</g>
<!-- Node1&#45;&gt;Node20 -->
<g id="edge65_Node000001_Node000020" class="edge">
<title>Node1&#45;&gt;Node20</title>
<g id="a_edge65_Node000001_Node000020"><a xlink:title=" ">
<path fill="none" stroke="#63b8ff" d="M66.04,-955.61C75.14,-984.83 104.95,-1068.35 160,-1111.21 164.55,-1114.75 169.61,-1117.77 174.91,-1120.34"/>
<polygon fill="#63b8ff" stroke="#63b8ff" points="173.39,-1123.5 183.96,-1124.18 176.12,-1117.05 173.39,-1123.5"/>
</a>
</g>
</g>
<!-- Node21 -->
<g id="Node000021" class="node">
<title>Node21</title>
<g id="a_Node000021"><a xlink:href="group___x_u_t_i_l_s.html#ga6f3a94795898655b7df2dc879ed5e5f1" target="_top" xlink:title="Subtraction signed.">
<polygon fill="white" stroke="#666666" points="328.25,-575.21 160,-575.21 160,-555.21 328.25,-555.21 328.25,-575.21"/>
<text xml:space="preserve" text-anchor="middle" x="244.12" y="-561.71" font-family="Helvetica,sans-Serif" font-size="10.00">XMPINTEGER::SubtractionSigned</text>
</a>
</g>
</g>
<!-- Node1&#45;&gt;Node21 -->
<g id="edge68_Node000001_Node000021" class="edge">
<title>Node1&#45;&gt;Node21</title>
<g id="a_edge68_Node000001_Node000021"><a xlink:title=" ">
<path fill="none" stroke="#63b8ff" d="M64.31,-935.04C71.4,-881.78 106.71,-635.52 160,-584.21 160.77,-583.47 161.56,-582.75 162.38,-582.06"/>
<polygon fill="#63b8ff" stroke="#63b8ff" points="164.26,-585.01 170.55,-576.48 160.32,-579.23 164.26,-585.01"/>
</a>
</g>
</g>
<!-- Node3 -->
<g id="Node000003" class="node">
<title>Node3</title>
<g id="a_Node000003"><a xlink:href="group___x_u_t_i_l_s.html#gac22e5c3dcf691667d8437c529e1413f3" target="_top" xlink:title="Addition ABS.">
<polygon fill="white" stroke="#666666" points="515.62,-613.21 371.38,-613.21 371.38,-593.21 515.62,-593.21 515.62,-613.21"/>
<text xml:space="preserve" text-anchor="middle" x="443.5" y="-599.71" font-family="Helvetica,sans-Serif" font-size="10.00">XMPINTEGER::AdditionABS</text>
</a>
</g>
</g>
<!-- Node2&#45;&gt;Node3 -->
<g id="edge2_Node000002_Node000003" class="edge">
<title>Node2&#45;&gt;Node3</title>
<g id="a_edge2_Node000002_Node000003"><a xlink:title=" ">
<path fill="none" stroke="#63b8ff" d="M321.44,-603.21C333.89,-603.21 346.85,-603.21 359.46,-603.21"/>
<polygon fill="#63b8ff" stroke="#63b8ff" points="359.41,-606.71 369.41,-603.21 359.41,-599.71 359.41,-606.71"/>
</a>
</g>
</g>
<!-- Node2&#45;&gt;Node8 -->
<g id="edge21_Node000002_Node000008" class="edge">
<title>Node2&#45;&gt;Node8</title>
<g id="a_edge21_Node000002_Node000008"><a xlink:title=" ">
<path fill="none" stroke="#63b8ff" d="M247.06,-613.47C254.52,-649.86 285.04,-773.31 364.25,-826.21 493.47,-912.5 687.15,-897.08 786.21,-881.5"/>
<polygon fill="#63b8ff" stroke="#63b8ff" points="786.72,-884.96 796.02,-879.89 785.59,-878.05 786.72,-884.96"/>
</a>
</g>
</g>
<!-- Node2&#45;&gt;Node10 -->
<g id="edge22_Node000002_Node000010" class="edge">
<title>Node2&#45;&gt;Node10</title>
<g id="a_edge22_Node000002_Node000010"><a xlink:title=" ">
<path fill="none" stroke="#63b8ff" d="M286.77,-613.69C346.64,-628.53 460.66,-655.88 558.75,-674.21 632.97,-688.08 718.52,-700.28 777.51,-708.11"/>
<polygon fill="#63b8ff" stroke="#63b8ff" points="776.71,-711.53 787.08,-709.37 777.62,-704.59 776.71,-711.53"/>
</a>
</g>
</g>
<!-- Node2&#45;&gt;Node11 -->
<g id="edge32_Node000002_Node000011" class="edge">
<title>Node2&#45;&gt;Node11</title>
<g id="a_edge32_Node000002_Node000011"><a xlink:title=" ">
<path fill="none" stroke="#63b8ff" d="M311.4,-592.76C317.34,-590.45 323.06,-587.64 328.25,-584.21 364.65,-560.14 519.88,-286.04 558.75,-266.21 641.37,-224.05 754.72,-253.02 812.45,-272.88"/>
<polygon fill="#63b8ff" stroke="#63b8ff" points="811.2,-276.16 821.8,-276.2 813.55,-269.56 811.2,-276.16"/>
</a>
</g>
</g>
<!-- Node2&#45;&gt;Node12 -->
<g id="edge17_Node000002_Node000012" class="edge">
<title>Node2&#45;&gt;Node12</title>
<g id="a_edge17_Node000002_Node000012"><a xlink:title=" ">
<path fill="none" stroke="#63b8ff" d="M317.73,-592.84C321.6,-590.45 325.16,-587.6 328.25,-584.21 410.65,-493.72 297.96,-414.09 364.25,-311.21 372.31,-298.7 550.2,-192.43 619.48,-151.34"/>
<polygon fill="#63b8ff" stroke="#63b8ff" points="621.13,-154.43 627.95,-146.32 617.56,-148.41 621.13,-154.43"/>
</a>
</g>
</g>
<!-- Node13 -->
<g id="Node000013" class="node">
<title>Node13</title>
<g id="a_Node000013"><a xlink:href="group___x_u_t_i_l_s.html#ga19b1408dabe209f42ed797491d431b82" target="_top" xlink:title="Subtraction ABS.">
<polygon fill="white" stroke="#666666" points="522.75,-575.21 364.25,-575.21 364.25,-555.21 522.75,-555.21 522.75,-575.21"/>
<text xml:space="preserve" text-anchor="middle" x="443.5" y="-561.71" font-family="Helvetica,sans-Serif" font-size="10.00">XMPINTEGER::SubtractionABS</text>
</a>
</g>
</g>
<!-- Node2&#45;&gt;Node13 -->
<g id="edge23_Node000002_Node000013" class="edge">
<title>Node2&#45;&gt;Node13</title>
<g id="a_edge23_Node000002_Node000013"><a xlink:title=" ">
<path fill="none" stroke="#63b8ff" d="M299.58,-592.72C323.53,-588.11 351.85,-582.66 376.95,-577.83"/>
<polygon fill="#63b8ff" stroke="#63b8ff" points="377.58,-581.27 386.74,-575.94 376.25,-574.4 377.58,-581.27"/>
</a>
</g>
</g>
<!-- Node3&#45;&gt;Node4 -->
<g id="edge3_Node000003_Node000004" class="edge">
<title>Node3&#45;&gt;Node4</title>
<g id="a_edge3_Node000003_Node000004"><a xlink:title=" ">
<path fill="none" stroke="#63b8ff" d="M455.66,-613.69C488.68,-644.71 586.17,-736.3 627.68,-775.3"/>
<polygon fill="#63b8ff" stroke="#63b8ff" points="625.08,-777.65 634.77,-781.95 629.87,-772.55 625.08,-777.65"/>
</a>
</g>
</g>
<!-- Node3&#45;&gt;Node6 -->
<g id="edge12_Node000003_Node000006" class="edge">
<title>Node3&#45;&gt;Node6</title>
<g id="a_edge12_Node000003_Node000006"><a xlink:title=" ">
<path fill="none" stroke="#63b8ff" d="M515.97,-596.5C588.33,-589.71 699.81,-579.25 773.68,-572.32"/>
<polygon fill="#63b8ff" stroke="#63b8ff" points="773.62,-575.84 783.25,-571.42 772.96,-568.87 773.62,-575.84"/>
</a>
</g>
</g>
<!-- Node3&#45;&gt;Node7 -->
<g id="edge13_Node000003_Node000007" class="edge">
<title>Node3&#45;&gt;Node7</title>
<g id="a_edge13_Node000003_Node000007"><a xlink:title=" ">
<path fill="none" stroke="#63b8ff" d="M511.48,-592.79C515.61,-590.44 519.43,-587.61 522.75,-584.21 574.93,-530.86 500.6,-466.98 558.75,-420.21 690.47,-314.27 915.49,-394.31 999.48,-430.18"/>
<polygon fill="#63b8ff" stroke="#63b8ff" points="997.97,-433.34 1008.53,-434.12 1000.76,-426.92 997.97,-433.34"/>
</a>
</g>
</g>
<!-- Node3&#45;&gt;Node9 -->
<g id="edge14_Node000003_Node000009" class="edge">
<title>Node3&#45;&gt;Node9</title>
<g id="a_edge14_Node000003_Node000009"><a xlink:title=" ">
<path fill="none" stroke="#63b8ff" d="M448,-613.47C459.47,-645.89 498.66,-747.8 558.75,-812.21 622.84,-880.9 672.85,-857.34 736.75,-926.21 790.99,-984.68 827.64,-1074.12 842.31,-1114.34"/>
<polygon fill="#63b8ff" stroke="#63b8ff" points="838.93,-1115.27 845.57,-1123.52 845.52,-1112.93 838.93,-1115.27"/>
</a>
</g>
</g>
<!-- Node3&#45;&gt;Node10 -->
<g id="edge15_Node000003_Node000010" class="edge">
<title>Node3&#45;&gt;Node10</title>
<g id="a_edge15_Node000003_Node000010"><a xlink:title=" ">
<path fill="none" stroke="#63b8ff" d="M481.51,-613.63C555.09,-634.34 719.66,-680.66 801.45,-703.68"/>
<polygon fill="#63b8ff" stroke="#63b8ff" points="800.39,-707.02 810.97,-706.36 802.29,-700.28 800.39,-707.02"/>
</a>
</g>
</g>
<!-- Node3&#45;&gt;Node11 -->
<g id="edge16_Node000003_Node000011" class="edge">
<title>Node3&#45;&gt;Node11</title>
<g id="a_edge16_Node000003_Node000011"><a xlink:title=" ">
<path fill="none" stroke="#63b8ff" d="M512.09,-592.81C516.02,-590.45 519.63,-587.61 522.75,-584.21 594.18,-506.34 486.24,-426.06 558.75,-349.21 566.44,-341.05 697.65,-315.4 781.15,-299.77"/>
<polygon fill="#63b8ff" stroke="#63b8ff" points="781.67,-303.23 790.85,-297.95 780.38,-296.35 781.67,-303.23"/>
</a>
</g>
</g>
<!-- Node4&#45;&gt;Node5 -->
<g id="edge4_Node000004_Node000005" class="edge">
<title>Node4&#45;&gt;Node5</title>
<g id="a_edge4_Node000004_Node000005"><a xlink:title=" ">
<path fill="none" stroke="#63b8ff" d="M658.03,-803.69C676.37,-825.06 717.2,-875.88 736.75,-926.21 773.9,-1021.83 725.97,-1062.9 772.75,-1154.21 785.01,-1178.15 807.63,-1199.12 825.15,-1212.93"/>
<polygon fill="#63b8ff" stroke="#63b8ff" points="822.97,-1215.67 833.05,-1218.93 827.2,-1210.1 822.97,-1215.67"/>
</a>
</g>
</g>
<!-- Node4&#45;&gt;Node6 -->
<g id="edge5_Node000004_Node000006" class="edge">
<title>Node4&#45;&gt;Node6</title>
<g id="a_edge5_Node000004_Node000006"><a xlink:title=" ">
<path fill="none" stroke="#63b8ff" d="M657.9,-782.82C689.19,-747.28 792.23,-630.25 832.84,-584.13"/>
<polygon fill="#63b8ff" stroke="#63b8ff" points="835.32,-586.61 839.3,-576.79 830.06,-581.99 835.32,-586.61"/>
</a>
</g>
</g>
<!-- Node4&#45;&gt;Node7 -->
<g id="edge6_Node000004_Node000007" class="edge">
<title>Node4&#45;&gt;Node7</title>
<g id="a_edge6_Node000004_Node000007"><a xlink:title=" ">
<path fill="none" stroke="#63b8ff" d="M715.46,-797.08C777.69,-797.04 869.5,-787.13 928.25,-736.21 1011.21,-664.3 1028.07,-521.46 1031.5,-467"/>
<polygon fill="#63b8ff" stroke="#63b8ff" points="1034.99,-467.36 1032.01,-457.19 1028,-467 1034.99,-467.36"/>
</a>
</g>
</g>
<!-- Node4&#45;&gt;Node8 -->
<g id="edge7_Node000004_Node000008" class="edge">
<title>Node4&#45;&gt;Node8</title>
<g id="a_edge7_Node000004_Node000008"><a xlink:title=" ">
<path fill="none" stroke="#63b8ff" d="M692.62,-803.64C706.85,-807.43 722.61,-812.06 736.75,-817.21 765.47,-827.67 796.97,-842.49 819.35,-853.64"/>
<polygon fill="#63b8ff" stroke="#63b8ff" points="817.7,-856.73 828.21,-858.1 820.85,-850.47 817.7,-856.73"/>
</a>
</g>
</g>
<!-- Node4&#45;&gt;Node9 -->
<g id="edge8_Node000004_Node000009" class="edge">
<title>Node4&#45;&gt;Node9</title>
<g id="a_edge8_Node000004_Node000009"><a xlink:title=" ">
<path fill="none" stroke="#63b8ff" d="M669.88,-803.53C689.56,-814.1 718.53,-832.21 736.75,-855.21 802.29,-937.95 834.5,-1063.83 845.25,-1113.74"/>
<polygon fill="#63b8ff" stroke="#63b8ff" points="841.76,-1114.16 847.22,-1123.24 848.61,-1112.74 841.76,-1114.16"/>
</a>
</g>
</g>
<!-- Node4&#45;&gt;Node10 -->
<g id="edge10_Node000004_Node000010" class="edge">
<title>Node4&#45;&gt;Node10</title>
<g id="a_edge10_Node000004_Node000010"><a xlink:title=" ">
<path fill="none" stroke="#63b8ff" d="M692.62,-782.78C706.85,-778.99 722.61,-774.36 736.75,-769.21 765.47,-758.75 796.97,-743.92 819.35,-732.78"/>
<polygon fill="#63b8ff" stroke="#63b8ff" points="820.85,-735.94 828.21,-728.32 817.7,-729.69 820.85,-735.94"/>
</a>
</g>
</g>
<!-- Node4&#45;&gt;Node11 -->
<g id="edge11_Node000004_Node000011" class="edge">
<title>Node4&#45;&gt;Node11</title>
<g id="a_edge11_Node000004_Node000011"><a xlink:title=" ">
<path fill="none" stroke="#63b8ff" d="M652.76,-783.1C677.3,-721.24 807.29,-393.59 841.33,-307.79"/>
<polygon fill="#63b8ff" stroke="#63b8ff" points="844.49,-309.33 844.92,-298.75 837.98,-306.75 844.49,-309.33"/>
</a>
</g>
</g>
<!-- Node9&#45;&gt;Node7 -->
<g id="edge9_Node000009_Node000007" class="edge">
<title>Node9&#45;&gt;Node7</title>
<g id="a_edge9_Node000009_Node000007"><a xlink:title=" ">
<path fill="none" stroke="#63b8ff" d="M854.98,-1124.93C866.33,-1091.23 902.98,-980.92 928.25,-888.21 972.07,-727.42 1014.37,-530.83 1027.91,-466.61"/>
<polygon fill="#63b8ff" stroke="#63b8ff" points="1031.28,-467.57 1029.91,-457.06 1024.43,-466.13 1031.28,-467.57"/>
</a>
</g>
</g>
<!-- Node12&#45;&gt;Node6 -->
<g id="edge18_Node000012_Node000006" class="edge">
<title>Node12&#45;&gt;Node6</title>
<g id="a_edge18_Node000012_Node000006"><a xlink:title=" ">
<path fill="none" stroke="#63b8ff" d="M716.82,-145.6C724.23,-148.99 731.11,-153.42 736.75,-159.21 783.69,-207.39 755.19,-241.28 772.75,-306.21 796.81,-395.18 829.16,-500.18 842.89,-544.17"/>
<polygon fill="#63b8ff" stroke="#63b8ff" points="839.47,-544.95 845.8,-553.45 846.15,-542.86 839.47,-544.95"/>
</a>
</g>
</g>
<!-- Node12&#45;&gt;Node7 -->
<g id="edge19_Node000012_Node000007" class="edge">
<title>Node12&#45;&gt;Node7</title>
<g id="a_edge19_Node000012_Node000007"><a xlink:title=" ">
<path fill="none" stroke="#63b8ff" d="M736.98,-134.45C797.1,-138.4 875.13,-152.84 928.25,-197.21 999.98,-257.11 1023.19,-374.9 1029.91,-423.48"/>
<polygon fill="#63b8ff" stroke="#63b8ff" points="1026.42,-423.77 1031.15,-433.25 1033.36,-422.89 1026.42,-423.77"/>
</a>
</g>
</g>
<!-- Node12&#45;&gt;Node11 -->
<g id="edge20_Node000012_Node000011" class="edge">
<title>Node12&#45;&gt;Node11</title>
<g id="a_edge20_Node000012_Node000011"><a xlink:title=" ">
<path fill="none" stroke="#63b8ff" d="M706.17,-145.66C716.81,-149.02 727.48,-153.43 736.75,-159.21 781.76,-187.27 818.98,-238.73 837.28,-267.1"/>
<polygon fill="#63b8ff" stroke="#63b8ff" points="834.25,-268.86 842.54,-275.47 840.18,-265.14 834.25,-268.86"/>
</a>
</g>
</g>
<!-- Node13&#45;&gt;Node4 -->
<g id="edge25_Node000013_Node000004" class="edge">
<title>Node13&#45;&gt;Node4</title>
<g id="a_edge25_Node000013_Node000004"><a xlink:title=" ">
<path fill="none" stroke="#63b8ff" d="M507.62,-575.69C513,-578 518.14,-580.8 522.75,-584.21 589.13,-633.3 626.48,-729.46 640.4,-772.04"/>
<polygon fill="#63b8ff" stroke="#63b8ff" points="637.05,-773.06 643.39,-781.55 643.73,-770.96 637.05,-773.06"/>
</a>
</g>
</g>
<!-- Node13&#45;&gt;Node5 -->
<g id="edge26_Node000013_Node000005" class="edge">
<title>Node13&#45;&gt;Node5</title>
<g id="a_edge26_Node000013_Node000005"><a xlink:title=" ">
<path fill="none" stroke="#63b8ff" d="M512.66,-575.62C516.4,-577.99 519.82,-580.83 522.75,-584.21 578.27,-648.34 520.93,-888.28 558.75,-964.21 590.6,-1028.15 763.96,-1164.77 826.77,-1212.95"/>
<polygon fill="#63b8ff" stroke="#63b8ff" points="824.59,-1215.69 834.66,-1218.98 828.84,-1210.13 824.59,-1215.69"/>
</a>
</g>
</g>
<!-- Node13&#45;&gt;Node6 -->
<g id="edge27_Node000013_Node000006" class="edge">
<title>Node13&#45;&gt;Node6</title>
<g id="a_edge27_Node000013_Node000006"><a xlink:title=" ">
<path fill="none" stroke="#63b8ff" d="M519.36,-554.71C532.46,-553.25 545.98,-551.99 558.75,-551.21 637.71,-546.39 657.79,-546.32 736.75,-551.21 748.66,-551.94 761.23,-553.11 773.49,-554.47"/>
<polygon fill="#63b8ff" stroke="#63b8ff" points="772.8,-557.91 783.14,-555.59 773.61,-550.96 772.8,-557.91"/>
</a>
</g>
</g>
<!-- Node13&#45;&gt;Node7 -->
<g id="edge28_Node000013_Node000007" class="edge">
<title>Node13&#45;&gt;Node7</title>
<g id="a_edge28_Node000013_Node000007"><a xlink:title=" ">
<path fill="none" stroke="#63b8ff" d="M444.63,-554.79C445.79,-510.42 456.91,-336.32 558.75,-266.21 566.61,-260.8 924.23,-265.88 928.25,-268.21 987.55,-302.54 1016.5,-385.09 1027.25,-424.1"/>
<polygon fill="#63b8ff" stroke="#63b8ff" points="1023.83,-424.86 1029.73,-433.66 1030.6,-423.1 1023.83,-424.86"/>
</a>
</g>
</g>
<!-- Node13&#45;&gt;Node10 -->
<g id="edge30_Node000013_Node000010" class="edge">
<title>Node13&#45;&gt;Node10</title>
<g id="a_edge30_Node000013_Node000010"><a xlink:title=" ">
<path fill="none" stroke="#63b8ff" d="M523.04,-574.54C583.57,-583.82 668.23,-601.41 736.75,-633.21 773.2,-650.12 809.4,-680.02 830.6,-699.21"/>
<polygon fill="#63b8ff" stroke="#63b8ff" points="828.14,-701.71 837.86,-705.92 832.89,-696.57 828.14,-701.71"/>
</a>
</g>
</g>
<!-- Node13&#45;&gt;Node11 -->
<g id="edge31_Node000013_Node000011" class="edge">
<title>Node13&#45;&gt;Node11</title>
<g id="a_edge31_Node000013_Node000011"><a xlink:title=" ">
<path fill="none" stroke="#63b8ff" d="M445.52,-554.93C450.04,-515.41 472.08,-372.46 558.75,-311.21 625.18,-264.26 722.7,-266.77 786.15,-275.17"/>
<polygon fill="#63b8ff" stroke="#63b8ff" points="785.3,-278.58 795.69,-276.52 786.28,-271.65 785.3,-278.58"/>
</a>
</g>
</g>
<!-- Node13&#45;&gt;Node12 -->
<g id="edge24_Node000013_Node000012" class="edge">
<title>Node13&#45;&gt;Node12</title>
<g id="a_edge24_Node000013_Node000012"><a xlink:title=" ">
<path fill="none" stroke="#63b8ff" d="M446.77,-554.83C458.55,-501.53 513.98,-258.74 558.75,-197.21 573.13,-177.44 595.78,-161.69 614.51,-151.01"/>
<polygon fill="#63b8ff" stroke="#63b8ff" points="615.99,-154.19 623.1,-146.33 612.64,-148.04 615.99,-154.19"/>
</a>
</g>
</g>
<!-- Node13&#45;&gt;Node14 -->
<g id="edge29_Node000013_Node000014" class="edge">
<title>Node13&#45;&gt;Node14</title>
<g id="a_edge29_Node000013_Node000014"><a xlink:title=" ">
<path fill="none" stroke="#63b8ff" d="M512.07,-575.62C516,-577.98 519.62,-580.82 522.75,-584.21 592.27,-659.65 521.6,-716.58 558.75,-812.21 576.01,-856.64 609.85,-901.45 630.17,-926.05"/>
<polygon fill="#63b8ff" stroke="#63b8ff" points="627.38,-928.17 636.5,-933.57 632.73,-923.66 627.38,-928.17"/>
</a>
</g>
</g>
<!-- Node15&#45;&gt;Node6 -->
<g id="edge35_Node000015_Node000006" class="edge">
<title>Node15&#45;&gt;Node6</title>
<g id="a_edge35_Node000015_Node000006"><a xlink:title=" ">
<path fill="none" stroke="#63b8ff" d="M706.31,-461.62C716.72,-465.48 727.27,-470.01 736.75,-475.21 773.27,-495.21 809.91,-527.19 831.11,-547.15"/>
<polygon fill="#63b8ff" stroke="#63b8ff" points="828.47,-549.47 838.11,-553.86 833.31,-544.41 828.47,-549.47"/>
</a>
</g>
</g>
<!-- Node15&#45;&gt;Node7 -->
<g id="edge36_Node000015_Node000007" class="edge">
<title>Node15&#45;&gt;Node7</title>
<g id="a_edge36_Node000015_Node000007"><a xlink:title=" ">
<path fill="none" stroke="#63b8ff" d="M727.31,-445.21C793.1,-445.21 886.59,-445.21 952.69,-445.21"/>
<polygon fill="#63b8ff" stroke="#63b8ff" points="952.37,-448.71 962.37,-445.21 952.37,-441.71 952.37,-448.71"/>
</a>
</g>
</g>
<!-- Node15&#45;&gt;Node8 -->
<g id="edge37_Node000015_Node000008" class="edge">
<title>Node15&#45;&gt;Node8</title>
<g id="a_edge37_Node000015_Node000008"><a xlink:title=" ">
<path fill="none" stroke="#63b8ff" d="M654.93,-461.61C672,-506.4 721.85,-634.26 772.75,-736.21 793.28,-777.32 820.96,-823.37 836.85,-849.07"/>
<polygon fill="#63b8ff" stroke="#63b8ff" points="833.83,-850.83 842.09,-857.47 839.77,-847.13 833.83,-850.83"/>
</a>
</g>
</g>
<!-- Node15&#45;&gt;Node11 -->
<g id="edge38_Node000015_Node000011" class="edge">
<title>Node15&#45;&gt;Node11</title>
<g id="a_edge38_Node000015_Node000011"><a xlink:title=" ">
<path fill="none" stroke="#63b8ff" d="M670.16,-428.81C688.03,-415.1 714.13,-394.98 736.75,-377.21 768.63,-352.17 805.28,-322.81 827.91,-304.61"/>
<polygon fill="#63b8ff" stroke="#63b8ff" points="829.93,-307.48 835.52,-298.48 825.54,-302.02 829.93,-307.48"/>
</a>
</g>
</g>
<!-- Node17&#45;&gt;Node6 -->
<g id="edge48_Node000017_Node000006" class="edge">
<title>Node17&#45;&gt;Node6</title>
<g id="a_edge48_Node000017_Node000006"><a xlink:title=" ">
<path fill="none" stroke="#63b8ff" d="M654.14,-1163.11C669.71,-1133.51 714.97,-1043.97 736.75,-964.21 768.17,-849.12 734.21,-811.11 772.75,-698.21 787.59,-654.75 817.21,-609.55 835,-584.64"/>
<polygon fill="#63b8ff" stroke="#63b8ff" points="837.67,-586.92 840.72,-576.78 832.01,-582.8 837.67,-586.92"/>
</a>
</g>
</g>
<!-- Node17&#45;&gt;Node7 -->
<g id="edge49_Node000017_Node000007" class="edge">
<title>Node17&#45;&gt;Node7</title>
<g id="a_edge49_Node000017_Node000007"><a xlink:title=" ">
<path fill="none" stroke="#63b8ff" d="M708.1,-1177.52C780.58,-1181.41 897.37,-1182.77 928.25,-1154.21 1031.81,-1058.42 1033.6,-575.95 1032.66,-467.06"/>
<polygon fill="#63b8ff" stroke="#63b8ff" points="1036.16,-467.16 1032.56,-457.2 1029.16,-467.24 1036.16,-467.16"/>
</a>
</g>
</g>
<!-- Node17&#45;&gt;Node9 -->
<g id="edge50_Node000017_Node000009" class="edge">
<title>Node17&#45;&gt;Node9</title>
<g id="a_edge50_Node000017_Node000009"><a xlink:title=" ">
<path fill="none" stroke="#63b8ff" d="M704.14,-1162.72C728.6,-1158.09 757.56,-1152.61 783.17,-1147.76"/>
<polygon fill="#63b8ff" stroke="#63b8ff" points="783.63,-1151.24 792.81,-1145.94 782.33,-1144.36 783.63,-1151.24"/>
</a>
</g>
</g>
<!-- Node18&#45;&gt;Node9 -->
<g id="edge53_Node000018_Node000009" class="edge">
<title>Node18&#45;&gt;Node9</title>
<g id="a_edge53_Node000018_Node000009"><a xlink:title=" ">
<path fill="none" stroke="#63b8ff" d="M307.28,-1217.16C401.77,-1224.36 586.46,-1231.12 736.75,-1192.21 769.01,-1183.85 802.69,-1165.34 824.75,-1151.67"/>
<polygon fill="#63b8ff" stroke="#63b8ff" points="826.46,-1154.72 833.02,-1146.41 822.7,-1148.82 826.46,-1154.72"/>
</a>
</g>
</g>
<!-- Node18&#45;&gt;Node16 -->
<g id="edge52_Node000018_Node000016" class="edge">
<title>Node18&#45;&gt;Node16</title>
<g id="a_edge52_Node000018_Node000016"><a xlink:title=" ">
<path fill="none" stroke="#63b8ff" d="M299.58,-1200.72C323.53,-1196.11 351.85,-1190.66 376.95,-1185.83"/>
<polygon fill="#63b8ff" stroke="#63b8ff" points="377.58,-1189.27 386.74,-1183.94 376.25,-1182.4 377.58,-1189.27"/>
</a>
</g>
</g>
<!-- Node19&#45;&gt;Node4 -->
<g id="edge55_Node000019_Node000004" class="edge">
<title>Node19&#45;&gt;Node4</title>
<g id="a_edge55_Node000019_Node000004"><a xlink:title=" ">
<path fill="none" stroke="#63b8ff" d="M459.35,-991.82C475.65,-980.12 502.22,-960.12 522.75,-940.21 566.27,-898 610.44,-841.71 632.44,-812.55"/>
<polygon fill="#63b8ff" stroke="#63b8ff" points="635.17,-814.75 638.36,-804.65 629.56,-810.56 635.17,-814.75"/>
</a>
</g>
</g>
<!-- Node19&#45;&gt;Node5 -->
<g id="edge56_Node000019_Node000005" class="edge">
<title>Node19&#45;&gt;Node5</title>
<g id="a_edge56_Node000019_Node000005"><a xlink:title=" ">
<path fill="none" stroke="#63b8ff" d="M449.21,-1012.5C466.01,-1048.72 523.81,-1169.33 558.75,-1192.21 626.71,-1236.7 722.91,-1240.49 785.74,-1237.03"/>
<polygon fill="#63b8ff" stroke="#63b8ff" points="785.81,-1240.54 795.56,-1236.41 785.36,-1233.55 785.81,-1240.54"/>
</a>
</g>
</g>
<!-- Node19&#45;&gt;Node6 -->
<g id="edge57_Node000019_Node000006" class="edge">
<title>Node19&#45;&gt;Node6</title>
<g id="a_edge57_Node000019_Node000006"><a xlink:title=" ">
<path fill="none" stroke="#63b8ff" d="M447.6,-992.11C458.38,-958.23 496.99,-846.64 558.75,-774.21 636.21,-683.36 761.08,-611.2 818.63,-580.81"/>
<polygon fill="#63b8ff" stroke="#63b8ff" points="819.98,-584.06 827.23,-576.33 816.74,-577.85 819.98,-584.06"/>
</a>
</g>
</g>
<!-- Node19&#45;&gt;Node7 -->
<g id="edge58_Node000019_Node000007" class="edge">
<title>Node19&#45;&gt;Node7</title>
<g id="a_edge58_Node000019_Node000007"><a xlink:title=" ">
<path fill="none" stroke="#63b8ff" d="M449.91,-1012.48C462.77,-1036.92 496.05,-1100.52 522.75,-1154.21 539.21,-1187.31 528.41,-1208.08 558.75,-1229.21 693.72,-1323.18 804.71,-1357.78 928.25,-1249.21 989.01,-1195.81 1024.61,-590.04 1031.24,-466.95"/>
<polygon fill="#63b8ff" stroke="#63b8ff" points="1034.74,-467.15 1031.77,-456.98 1027.75,-466.78 1034.74,-467.15"/>
</a>
</g>
</g>
<!-- Node19&#45;&gt;Node8 -->
<g id="edge59_Node000019_Node000008" class="edge">
<title>Node19&#45;&gt;Node8</title>
<g id="a_edge59_Node000019_Node000008"><a xlink:title=" ">
<path fill="none" stroke="#63b8ff" d="M492.13,-1012.68C552.22,-1023.43 657.29,-1033.93 736.75,-997.21 785.83,-974.53 822.25,-919.09 839.11,-889.16"/>
<polygon fill="#63b8ff" stroke="#63b8ff" points="841.99,-891.18 843.7,-880.72 835.84,-887.83 841.99,-891.18"/>
</a>
</g>
</g>
<!-- Node19&#45;&gt;Node9 -->
<g id="edge60_Node000019_Node000009" class="edge">
<title>Node19&#45;&gt;Node9</title>
<g id="a_edge60_Node000019_Node000009"><a xlink:title=" ">
<path fill="none" stroke="#63b8ff" d="M476.28,-1012.64C548.5,-1036.36 725.01,-1094.32 806.71,-1121.16"/>
<polygon fill="#63b8ff" stroke="#63b8ff" points="805.56,-1124.46 816.15,-1124.26 807.74,-1117.81 805.56,-1124.46"/>
</a>
</g>
</g>
<!-- Node19&#45;&gt;Node10 -->
<g id="edge63_Node000019_Node000010" class="edge">
<title>Node19&#45;&gt;Node10</title>
<g id="a_edge63_Node000019_Node000010"><a xlink:title=" ">
<path fill="none" stroke="#63b8ff" d="M516.72,-996.86C597.76,-990.24 720.15,-978.11 736.75,-964.21 777.49,-930.1 751.35,-898.84 772.75,-850.21 791.26,-808.15 819.64,-762.43 836.21,-737.05"/>
<polygon fill="#63b8ff" stroke="#63b8ff" points="839.1,-739.02 841.69,-728.75 833.26,-735.17 839.1,-739.02"/>
</a>
</g>
</g>
<!-- Node19&#45;&gt;Node11 -->
<g id="edge64_Node000019_Node000011" class="edge">
<title>Node19&#45;&gt;Node11</title>
<g id="a_edge64_Node000019_Node000011"><a xlink:title=" ">
<path fill="none" stroke="#63b8ff" d="M446.72,-991.95C456.24,-947.78 494.49,-769.39 522.75,-622.21 539.95,-532.65 502.16,-491.72 558.75,-420.21 612.24,-352.62 658.57,-379.5 736.75,-343.21 764.99,-330.1 796.71,-314.24 819.29,-302.75"/>
<polygon fill="#63b8ff" stroke="#63b8ff" points="820.62,-306 827.94,-298.34 817.44,-299.77 820.62,-306"/>
</a>
</g>
</g>
<!-- Node19&#45;&gt;Node14 -->
<g id="edge61_Node000019_Node000014" class="edge">
<title>Node19&#45;&gt;Node14</title>
<g id="a_edge61_Node000019_Node000014"><a xlink:title=" ">
<path fill="none" stroke="#63b8ff" d="M480.23,-991.74C502.73,-985.18 532.41,-976.6 558.75,-969.21 571.25,-965.7 584.77,-961.98 597.37,-958.54"/>
<polygon fill="#63b8ff" stroke="#63b8ff" points="597.97,-962 606.7,-956 596.13,-955.24 597.97,-962"/>
</a>
</g>
</g>
<!-- Node19&#45;&gt;Node17 -->
<g id="edge62_Node000019_Node000017" class="edge">
<title>Node19&#45;&gt;Node17</title>
<g id="a_edge62_Node000019_Node000017"><a xlink:title=" ">
<path fill="none" stroke="#63b8ff" d="M456.4,-1012.62C472.69,-1027.27 502.26,-1055.32 522.75,-1083.21 542.54,-1110.13 532.54,-1128.49 558.75,-1149.21 564.21,-1153.53 570.39,-1157.07 576.89,-1159.97"/>
<polygon fill="#63b8ff" stroke="#63b8ff" points="575.29,-1163.11 585.88,-1163.49 577.84,-1156.59 575.29,-1163.11"/>
</a>
</g>
</g>
<!-- Node20&#45;&gt;Node17 -->
<g id="edge66_Node000020_Node000017" class="edge">
<title>Node20&#45;&gt;Node17</title>
<g id="a_edge66_Node000020_Node000017"><a xlink:title=" ">
<path fill="none" stroke="#63b8ff" d="M310.61,-1138.14C366.96,-1141.03 450.36,-1146.2 522.75,-1154.21 540.06,-1156.12 558.66,-1158.7 576.05,-1161.33"/>
<polygon fill="#63b8ff" stroke="#63b8ff" points="575.37,-1164.77 585.79,-1162.83 576.44,-1157.85 575.37,-1164.77"/>
</a>
</g>
</g>
<!-- Node21&#45;&gt;Node3 -->
<g id="edge69_Node000021_Node000003" class="edge">
<title>Node21&#45;&gt;Node3</title>
<g id="a_edge69_Node000021_Node000003"><a xlink:title=" ">
<path fill="none" stroke="#63b8ff" d="M299.58,-575.69C323.53,-580.3 351.85,-585.76 376.95,-590.59"/>
<polygon fill="#63b8ff" stroke="#63b8ff" points="376.25,-594.02 386.74,-592.47 377.58,-587.14 376.25,-594.02"/>
</a>
</g>
</g>
<!-- Node21&#45;&gt;Node8 -->
<g id="edge71_Node000021_Node000008" class="edge">
<title>Node21&#45;&gt;Node8</title>
<g id="a_edge71_Node000021_Node000008"><a xlink:title=" ">
<path fill="none" stroke="#63b8ff" d="M308.79,-575.63C315.58,-577.94 322.21,-580.76 328.25,-584.21 348.46,-595.74 347.93,-605.63 364.25,-622.21 449.04,-708.31 451.77,-756.01 558.75,-812.21 627.34,-848.24 715.87,-861.6 777.13,-866.5"/>
<polygon fill="#63b8ff" stroke="#63b8ff" points="776.5,-869.96 786.73,-867.21 777.02,-862.98 776.5,-869.96"/>
</a>
</g>
</g>
<!-- Node21&#45;&gt;Node10 -->
<g id="edge72_Node000021_Node000010" class="edge">
<title>Node21&#45;&gt;Node10</title>
<g id="a_edge72_Node000021_Node000010"><a xlink:title=" ">
<path fill="none" stroke="#63b8ff" d="M282.8,-554.75C369.61,-532.93 587.64,-491.28 736.75,-576.21 786.94,-604.79 823.29,-665.28 839.73,-696.94"/>
<polygon fill="#63b8ff" stroke="#63b8ff" points="836.4,-698.11 844.02,-705.48 842.66,-694.97 836.4,-698.11"/>
</a>
</g>
</g>
<!-- Node21&#45;&gt;Node11 -->
<g id="edge74_Node000021_Node000011" class="edge">
<title>Node21&#45;&gt;Node11</title>
<g id="a_edge74_Node000021_Node000011"><a xlink:title=" ">
<path fill="none" stroke="#63b8ff" d="M246.59,-555.05C255.13,-497.09 300.41,-208.84 364.25,-151.21 425.96,-95.49 663.55,-76.79 736.75,-116.21 796.64,-148.46 829.98,-227.99 843.01,-266.14"/>
<polygon fill="#63b8ff" stroke="#63b8ff" points="839.64,-267.09 846.07,-275.52 846.3,-264.93 839.64,-267.09"/>
</a>
</g>
</g>
<!-- Node21&#45;&gt;Node12 -->
<g id="edge70_Node000021_Node000012" class="edge">
<title>Node21&#45;&gt;Node12</title>
<g id="a_edge70_Node000021_Node000012"><a xlink:title=" ">
<path fill="none" stroke="#63b8ff" d="M245.75,-554.94C249.02,-510.3 267.91,-330.96 364.25,-235.21 414.1,-185.66 490.01,-160.56 550.59,-147.9"/>
<polygon fill="#63b8ff" stroke="#63b8ff" points="551.11,-151.37 560.23,-145.98 549.74,-144.5 551.11,-151.37"/>
</a>
</g>
</g>
<!-- Node21&#45;&gt;Node13 -->
<g id="edge73_Node000021_Node000013" class="edge">
<title>Node21&#45;&gt;Node13</title>
<g id="a_edge73_Node000021_Node000013"><a xlink:title=" ">
<path fill="none" stroke="#63b8ff" d="M328.54,-565.21C336.39,-565.21 344.37,-565.21 352.27,-565.21"/>
<polygon fill="#63b8ff" stroke="#63b8ff" points="352.27,-568.71 362.27,-565.21 352.27,-561.71 352.27,-568.71"/>
</a>
</g>
</g>
</g>
</svg>

<g id="navigator" transform="translate(0 0)" fill="#404254">
  <rect fill="#f2f5e9" fill-opacity="0.5" stroke="#606060" stroke-width=".5" x="0" y="0" width="60" height="60"/>
  <use id="zoomplus" xlink:href="#zoomPlus" x="17" y="9" onmousedown="handleZoom(evt,'in')"/>
  <use id="zoomminus" xlink:href="#zoomMin" x="42" y="9" onmousedown="handleZoom(evt,'out')"/>
  <use id="reset" xlink:href="#resetDef" x="30" y="36" onmousedown="handleReset()"/>
   <use id="arrowup" xlink:href="#arrowUp" x="0" y="0" onmousedown="handlePan(0,-1)"/>
  <use id="arrowright" xlink:href="#arrowRight" x="0" y="0" onmousedown="handlePan(1,0)"/>
  <use id="arrowdown" xlink:href="#arrowDown" x="0" y="0" onmousedown="handlePan(0,1)"/>
  <use id="arrowleft" xlink:href="#arrowLeft" x="0" y="0" onmousedown="handlePan(-1,0)"/>
</g>
<svg viewBox="0 0 15 15" width="100%" height="30px" preserveAspectRatio="xMaxYMin meet">
 <g id="arrow_out" transform="scale(0.3 0.3)">
  <a xlink:href="group___x_u_t_i_l_s_ga6a235d588c815a00cfc947abf7ee5cef_cgraph_org.svg" target="_base">
   <rect id="button" ry="5" rx="5" y="6" x="6" height="38" width="38"
        fill="#f2f5e9" fill-opacity="0.5" stroke="#606060" stroke-width="1.0"/>
   <path id="arrow"
     d="M 11.500037,31.436501 C 11.940474,20.09759 22.043105,11.32322 32.158766,21.979434 L 37.068811,17.246167 C 37.068811,17.246167 37.088388,32 37.088388,32 L 22.160133,31.978069 C 22.160133,31.978069 26.997745,27.140456 26.997745,27.140456 C 18.528582,18.264221 13.291696,25.230495 11.500037,31.436501 z"
     style="fill:#404040;"/>
  </a>
 </g>
</svg>

<style type='text/css'>
<![CDATA[
[data-mouse-over-selected='false'] { opacity: 0.7; }
[data-mouse-over-selected='true']  { opacity: 1.0; }
]]>
</style>
<script type="application/ecmascript"><![CDATA[
document.addEventListener('DOMContentLoaded', (event) => {
  highlightEdges();
  highlightAdjacentNodes();
});
]]></script>
</svg>
